<?xml version="1.0" encoding="UTF-8" standalone="no"?>
<!DOCTYPE svg PUBLIC "-//W3C//DTD SVG 1.1//EN"
 "http://www.w3.org/Graphics/SVG/1.1/DTD/svg11.dtd">
<!-- Generated by graphviz version 2.38.0 (20140413.2041)
 -->
<!-- Title: %3 Pages: 1 -->
<svg width="255pt" height="332pt"
 viewBox="0.00 0.00 254.79 332.00" xmlns="http://www.w3.org/2000/svg" xmlns:xlink="http://www.w3.org/1999/xlink">
<g id="graph0" class="graph" transform="scale(1 1) rotate(0) translate(4 328)">
<title>%3</title>
<polygon fill="white" stroke="none" points="-4,4 -4,-328 250.794,-328 250.794,4 -4,4"/>
<!-- 婚姻_1 -->
<g id="node1" class="node"><title>婚姻_1</title>
<ellipse fill="none" stroke="black" cx="102.397" cy="-234" rx="36.2938" ry="18"/>
<text text-anchor="middle" x="102.397" y="-230.3" font-family="Times New Roman,serif" font-size="14.00">婚姻_1</text>
</g>
<!-- 收入_1 -->
<g id="node2" class="node"><title>收入_1</title>
<ellipse fill="none" stroke="black" cx="49.3968" cy="-162" rx="36.2938" ry="18"/>
<text text-anchor="middle" x="49.3968" y="-158.3" font-family="Times New Roman,serif" font-size="14.00">收入_1</text>
</g>
<!-- 婚姻_1&#45;&gt;收入_1 -->
<g id="edge1" class="edge"><title>婚姻_1&#45;&gt;收入_1</title>
<path fill="none" stroke="black" d="M90.1043,-216.765C83.4819,-208.018 75.1789,-197.052 67.8017,-187.308"/>
<polygon fill="black" stroke="black" points="70.4494,-185.007 61.6226,-179.147 64.8686,-189.233 70.4494,-185.007"/>
</g>
<!-- 婚姻_2 -->
<g id="node3" class="node"><title>婚姻_2</title>
<ellipse fill="none" stroke="black" cx="140.397" cy="-162" rx="36.2938" ry="18"/>
<text text-anchor="middle" x="140.397" y="-158.3" font-family="Times New Roman,serif" font-size="14.00">婚姻_2</text>
</g>
<!-- 婚姻_1&#45;&gt;婚姻_2 -->
<g id="edge2" class="edge"><title>婚姻_1&#45;&gt;婚姻_2</title>
<path fill="none" stroke="black" d="M111.402,-216.411C115.945,-208.042 121.554,-197.71 126.625,-188.37"/>
<polygon fill="black" stroke="black" points="129.761,-189.928 131.456,-179.47 123.609,-186.589 129.761,-189.928"/>
</g>
<!-- 收入_2 -->
<g id="node4" class="node"><title>收入_2</title>
<ellipse fill="none" stroke="black" cx="36.3968" cy="-90" rx="36.2938" ry="18"/>
<text text-anchor="middle" x="36.3968" y="-86.3" font-family="Times New Roman,serif" font-size="14.00">收入_2</text>
</g>
<!-- 婚姻_2&#45;&gt;收入_2 -->
<g id="edge3" class="edge"><title>婚姻_2&#45;&gt;收入_2</title>
<path fill="none" stroke="black" d="M119.351,-146.834C103.885,-136.424 82.6742,-122.148 65.5728,-110.638"/>
<polygon fill="black" stroke="black" points="67.3067,-107.586 57.0565,-104.906 63.3981,-113.393 67.3067,-107.586"/>
</g>
<!-- 婚姻_3 -->
<g id="node5" class="node"><title>婚姻_3</title>
<ellipse fill="none" stroke="black" cx="178.397" cy="-90" rx="36.2938" ry="18"/>
<text text-anchor="middle" x="178.397" y="-86.3" font-family="Times New Roman,serif" font-size="14.00">婚姻_3</text>
</g>
<!-- 婚姻_2&#45;&gt;婚姻_3 -->
<g id="edge4" class="edge"><title>婚姻_2&#45;&gt;婚姻_3</title>
<path fill="none" stroke="black" d="M149.402,-144.411C153.945,-136.042 159.554,-125.71 164.625,-116.37"/>
<polygon fill="black" stroke="black" points="167.761,-117.928 169.456,-107.47 161.609,-114.589 167.761,-117.928"/>
</g>
<!-- 收入_3 -->
<g id="node6" class="node"><title>收入_3</title>
<ellipse fill="none" stroke="black" cx="210.397" cy="-18" rx="36.2938" ry="18"/>
<text text-anchor="middle" x="210.397" y="-14.3" font-family="Times New Roman,serif" font-size="14.00">收入_3</text>
</g>
<!-- 婚姻_3&#45;&gt;收入_3 -->
<g id="edge5" class="edge"><title>婚姻_3&#45;&gt;收入_3</title>
<path fill="none" stroke="black" d="M186.143,-72.055C189.838,-63.9726 194.341,-54.1214 198.46,-45.1117"/>
<polygon fill="black" stroke="black" points="201.747,-46.3389 202.722,-35.789 195.381,-43.4286 201.747,-46.3389"/>
</g>
<!-- Person (美貌程度, 智力...) -->
<g id="node7" class="node"><title>Person (美貌程度, 智力...)</title>
<ellipse fill="none" stroke="black" cx="134.397" cy="-306" rx="106.681" ry="18"/>
<text text-anchor="middle" x="134.397" y="-302.3" font-family="Times New Roman,serif" font-size="14.00">Person (美貌程度, 智力...)</text>
</g>
<!-- Person (美貌程度, 智力...)&#45;&gt;婚姻_1 -->
<g id="edge6" class="edge"><title>Person (美貌程度, 智力...)&#45;&gt;婚姻_1</title>
<path fill="none" stroke="black" d="M126.487,-287.697C122.79,-279.609 118.311,-269.812 114.223,-260.869"/>
<polygon fill="black" stroke="black" points="117.336,-259.262 109.996,-251.622 110.97,-262.172 117.336,-259.262"/>
</g>
<!-- Person (美貌程度, 智力...)&#45;&gt;收入_1 -->
<g id="edge9" class="edge"><title>Person (美貌程度, 智力...)&#45;&gt;收入_1</title>
<path fill="none" stroke="black" d="M98.2208,-288.914C83.0206,-280.231 66.7304,-267.974 57.3968,-252 46.5361,-233.413 45.099,-208.826 46.0604,-190.205"/>
<polygon fill="black" stroke="black" points="49.5664,-190.262 46.8505,-180.021 42.5873,-189.72 49.5664,-190.262"/>
</g>
<!-- Person (美貌程度, 智力...)&#45;&gt;婚姻_2 -->
<g id="edge7" class="edge"><title>Person (美貌程度, 智力...)&#45;&gt;婚姻_2</title>
<path fill="none" stroke="black" d="M139.671,-288.007C142.59,-277.704 145.919,-264.227 147.397,-252 149.891,-231.357 147.849,-207.908 145.34,-190.263"/>
<polygon fill="black" stroke="black" points="148.754,-189.444 143.754,-180.104 141.838,-190.524 148.754,-189.444"/>
</g>
<!-- Person (美貌程度, 智力...)&#45;&gt;收入_2 -->
<g id="edge10" class="edge"><title>Person (美貌程度, 智力...)&#45;&gt;收入_2</title>
<path fill="none" stroke="black" d="M97.1174,-289.131C79.269,-280.171 58.5409,-267.621 43.3968,-252 18.0646,-225.871 13.3374,-215.278 4.39677,-180 0.466042,-164.49 0.104481,-159.414 4.39677,-144 7.17887,-134.01 12.4094,-124.021 17.8476,-115.453"/>
<polygon fill="black" stroke="black" points="20.7954,-117.341 23.496,-107.096 14.9961,-113.421 20.7954,-117.341"/>
</g>
<!-- Person (美貌程度, 智力...)&#45;&gt;婚姻_3 -->
<g id="edge8" class="edge"><title>Person (美貌程度, 智力...)&#45;&gt;婚姻_3</title>
<path fill="none" stroke="black" d="M144.364,-287.949C157.321,-264.556 179.045,-220.759 185.397,-180 188.599,-159.455 186.522,-136.001 183.82,-118.33"/>
<polygon fill="black" stroke="black" points="187.218,-117.428 182.099,-108.152 180.316,-118.595 187.218,-117.428"/>
</g>
<!-- Person (美貌程度, 智力...)&#45;&gt;收入_3 -->
<g id="edge11" class="edge"><title>Person (美貌程度, 智力...)&#45;&gt;收入_3</title>
<path fill="none" stroke="black" d="M154.01,-288.084C164.098,-278.431 175.83,-265.572 183.397,-252 215.74,-193.983 214.426,-173.815 223.397,-108 225.558,-92.1466 225.316,-87.8844 223.397,-72 222.358,-63.4026 220.403,-54.1878 218.32,-45.8926"/>
<polygon fill="black" stroke="black" points="221.637,-44.748 215.671,-35.9927 214.875,-46.5576 221.637,-44.748"/>
</g>
</g>
</svg>
