<?xml version="1.0" encoding="UTF-8" standalone="no"?>
<!DOCTYPE svg PUBLIC "-//W3C//DTD SVG 1.1//EN"
 "http://www.w3.org/Graphics/SVG/1.1/DTD/svg11.dtd">
<!-- Generated by graphviz version 2.38.0 (20140413.2041)
 -->
<!-- Title: %3 Pages: 1 -->
<svg width="224pt" height="188pt"
 viewBox="0.00 0.00 223.79 188.00" xmlns="http://www.w3.org/2000/svg" xmlns:xlink="http://www.w3.org/1999/xlink">
<g id="graph0" class="graph" transform="scale(1 1) rotate(0) translate(4 184)">
<title>%3</title>
<polygon fill="white" stroke="none" points="-4,4 -4,-184 219.791,-184 219.791,4 -4,4"/>
<!-- push assigned -->
<g id="node1" class="node"><title>push assigned</title>
<ellipse fill="none" stroke="black" cx="61.7445" cy="-162" rx="61.99" ry="18"/>
<text text-anchor="middle" x="61.7445" y="-158.3" font-family="Times New Roman,serif" font-size="14.00">push assigned</text>
</g>
<!-- push delivered -->
<g id="node2" class="node"><title>push delivered</title>
<ellipse fill="none" stroke="black" cx="86.7445" cy="-90" rx="63.8893" ry="18"/>
<text text-anchor="middle" x="86.7445" y="-86.3" font-family="Times New Roman,serif" font-size="14.00">push delivered</text>
</g>
<!-- push assigned&#45;&gt;push delivered -->
<g id="edge1" class="edge"><title>push assigned&#45;&gt;push delivered</title>
<path fill="none" stroke="black" d="M67.7963,-144.055C70.6102,-136.176 74.0243,-126.617 77.1752,-117.794"/>
<polygon fill="black" stroke="black" points="80.5074,-118.87 80.5748,-108.275 73.9152,-116.516 80.5074,-118.87"/>
</g>
<!-- in app purchase -->
<g id="node3" class="node"><title>in app purchase</title>
<ellipse fill="none" stroke="black" cx="132.745" cy="-18" rx="68.4888" ry="18"/>
<text text-anchor="middle" x="132.745" y="-14.3" font-family="Times New Roman,serif" font-size="14.00">in app purchase</text>
</g>
<!-- push delivered&#45;&gt;in app purchase -->
<g id="edge2" class="edge"><title>push delivered&#45;&gt;in app purchase</title>
<path fill="none" stroke="black" d="M97.8798,-72.055C103.361,-63.7147 110.079,-53.4908 116.151,-44.2517"/>
<polygon fill="black" stroke="black" points="119.145,-46.0682 121.712,-35.789 113.295,-42.2239 119.145,-46.0682"/>
</g>
<!-- income -->
<g id="node4" class="node"><title>income</title>
<ellipse fill="none" stroke="blue" cx="178.745" cy="-162" rx="37.0935" ry="18"/>
<text text-anchor="middle" x="178.745" y="-158.3" font-family="Times New Roman,serif" font-size="14.00">income</text>
</g>
<!-- income&#45;&gt;push delivered -->
<g id="edge4" class="edge"><title>income&#45;&gt;push delivered</title>
<path fill="none" stroke="black" d="M159.682,-146.496C147.099,-136.922 130.364,-124.189 116.098,-113.334"/>
<polygon fill="black" stroke="black" points="118.111,-110.468 108.034,-107.198 113.873,-116.039 118.111,-110.468"/>
</g>
<!-- income&#45;&gt;in app purchase -->
<g id="edge3" class="edge"><title>income&#45;&gt;in app purchase</title>
<path fill="none" stroke="black" d="M176.451,-143.907C173.7,-125.717 168.351,-96.2726 159.745,-72 156.535,-62.9484 152.094,-53.4788 147.74,-45.0895"/>
<polygon fill="black" stroke="black" points="150.753,-43.3028 142.932,-36.1565 144.59,-46.6208 150.753,-43.3028"/>
</g>
</g>
</svg>
