<?xml version="1.0" encoding="UTF-8" standalone="no"?>
<!DOCTYPE svg PUBLIC "-//W3C//DTD SVG 1.1//EN"
 "http://www.w3.org/Graphics/SVG/1.1/DTD/svg11.dtd">
<!-- Generated by graphviz version 2.38.0 (20140413.2041)
 -->
<!-- Title: %3 Pages: 1 -->
<svg width="255pt" height="188pt"
 viewBox="0.00 0.00 254.99 188.00" xmlns="http://www.w3.org/2000/svg" xmlns:xlink="http://www.w3.org/1999/xlink">
<g id="graph0" class="graph" transform="scale(1 1) rotate(0) translate(4 184)">
<title>%3</title>
<polygon fill="white" stroke="none" points="-4,4 -4,-184 250.988,-184 250.988,4 -4,4"/>
<!-- push assigned -->
<g id="node1" class="node"><title>push assigned</title>
<ellipse fill="none" stroke="black" cx="61.7445" cy="-162" rx="61.99" ry="18"/>
<text text-anchor="middle" x="61.7445" y="-158.3" font-family="Times New Roman,serif" font-size="14.00">push assigned</text>
</g>
<!-- push delivered -->
<g id="node2" class="node"><title>push delivered</title>
<ellipse fill="none" stroke="black" cx="132.745" cy="-90" rx="63.8893" ry="18"/>
<text text-anchor="middle" x="132.745" y="-86.3" font-family="Times New Roman,serif" font-size="14.00">push delivered</text>
</g>
<!-- in app purchase -->
<g id="node3" class="node"><title>in app purchase</title>
<ellipse fill="none" stroke="black" cx="178.745" cy="-18" rx="68.4888" ry="18"/>
<text text-anchor="middle" x="178.745" y="-14.3" font-family="Times New Roman,serif" font-size="14.00">in app purchase</text>
</g>
<!-- push delivered&#45;&gt;in app purchase -->
<g id="edge1" class="edge"><title>push delivered&#45;&gt;in app purchase</title>
<path fill="none" stroke="black" d="M143.88,-72.055C149.361,-63.7147 156.079,-53.4908 162.151,-44.2517"/>
<polygon fill="black" stroke="black" points="165.145,-46.0682 167.712,-35.789 159.295,-42.2239 165.145,-46.0682"/>
</g>
<!-- income -->
<g id="node4" class="node"><title>income</title>
<ellipse fill="none" stroke="blue" cx="178.745" cy="-162" rx="37.0935" ry="18"/>
<text text-anchor="middle" x="178.745" y="-158.3" font-family="Times New Roman,serif" font-size="14.00">income</text>
</g>
<!-- income&#45;&gt;push delivered -->
<g id="edge3" class="edge"><title>income&#45;&gt;push delivered</title>
<path fill="none" stroke="black" d="M167.843,-144.411C162.367,-136.077 155.611,-125.797 149.494,-116.488"/>
<polygon fill="black" stroke="black" points="152.304,-114.391 143.887,-107.956 146.454,-118.235 152.304,-114.391"/>
</g>
<!-- income&#45;&gt;in app purchase -->
<g id="edge2" class="edge"><title>income&#45;&gt;in app purchase</title>
<path fill="none" stroke="black" d="M189.651,-144.608C195.697,-134.517 202.611,-121.054 205.745,-108 209.479,-92.4419 209.479,-87.5581 205.745,-72 203.503,-62.6616 199.327,-53.1135 194.917,-44.7405"/>
<polygon fill="black" stroke="black" points="197.879,-42.8659 189.931,-35.8603 191.775,-46.2933 197.879,-42.8659"/>
</g>
</g>
</svg>
