<?xml version="1.0" encoding="UTF-8" standalone="no"?>
<!DOCTYPE svg PUBLIC "-//W3C//DTD SVG 1.1//EN"
 "http://www.w3.org/Graphics/SVG/1.1/DTD/svg11.dtd">
<!-- Generated by graphviz version 2.38.0 (20140413.2041)
 -->
<!-- Title: %3 Pages: 1 -->
<svg width="90pt" height="188pt"
 viewBox="0.00 0.00 89.60 188.00" xmlns="http://www.w3.org/2000/svg" xmlns:xlink="http://www.w3.org/1999/xlink">
<g id="graph0" class="graph" transform="scale(1 1) rotate(0) translate(4 184)">
<title>%3</title>
<polygon fill="white" stroke="none" points="-4,4 -4,-184 85.5952,-184 85.5952,4 -4,4"/>
<!-- 能力 -->
<g id="node1" class="node"><title>能力</title>
<ellipse fill="none" stroke="black" cx="54.2976" cy="-162" rx="27.0966" ry="18"/>
<text text-anchor="middle" x="54.2976" y="-158.3" font-family="Times New Roman,serif" font-size="14.00">能力</text>
</g>
<!-- 教育 -->
<g id="node2" class="node"><title>教育</title>
<ellipse fill="none" stroke="black" cx="27.2976" cy="-90" rx="27.0966" ry="18"/>
<text text-anchor="middle" x="27.2976" y="-86.3" font-family="Times New Roman,serif" font-size="14.00">教育</text>
</g>
<!-- 能力&#45;&gt;教育 -->
<g id="edge1" class="edge"><title>能力&#45;&gt;教育</title>
<path fill="none" stroke="black" d="M47.899,-144.411C44.784,-136.335 40.9639,-126.431 37.463,-117.355"/>
<polygon fill="black" stroke="black" points="40.7021,-116.027 33.8378,-107.956 34.1711,-118.546 40.7021,-116.027"/>
</g>
<!-- 工资 -->
<g id="node3" class="node"><title>工资</title>
<ellipse fill="none" stroke="black" cx="54.2976" cy="-18" rx="27.0966" ry="18"/>
<text text-anchor="middle" x="54.2976" y="-14.3" font-family="Times New Roman,serif" font-size="14.00">工资</text>
</g>
<!-- 能力&#45;&gt;工资 -->
<g id="edge2" class="edge"><title>能力&#45;&gt;工资</title>
<path fill="none" stroke="black" d="M57.9514,-143.908C59.9734,-133.569 62.2784,-120.09 63.2976,-108 64.6416,-92.0566 64.6416,-87.9434 63.2976,-72 62.5809,-63.4991 61.2287,-54.3119 59.786,-46.0122"/>
<polygon fill="black" stroke="black" points="63.2117,-45.2892 57.9514,-36.0925 56.3285,-46.5623 63.2117,-45.2892"/>
</g>
<!-- 教育&#45;&gt;工资 -->
<g id="edge3" class="edge"><title>教育&#45;&gt;工资</title>
<path fill="none" stroke="black" d="M33.6962,-72.411C36.8112,-64.3352 40.6313,-54.4312 44.1322,-45.3547"/>
<polygon fill="black" stroke="black" points="47.424,-46.5458 47.7573,-35.9562 40.893,-44.0267 47.424,-46.5458"/>
</g>
</g>
</svg>
