<?xml version="1.0" encoding="UTF-8" standalone="no"?>
<!DOCTYPE svg PUBLIC "-//W3C//DTD SVG 1.1//EN"
 "http://www.w3.org/Graphics/SVG/1.1/DTD/svg11.dtd">
<!-- Generated by graphviz version 2.38.0 (20140413.2041)
 -->
<!-- Title: %3 Pages: 1 -->
<svg width="168pt" height="188pt"
 viewBox="0.00 0.00 168.49 188.00" xmlns="http://www.w3.org/2000/svg" xmlns:xlink="http://www.w3.org/1999/xlink">
<g id="graph0" class="graph" transform="scale(1 1) rotate(0) translate(4 184)">
<title>%3</title>
<polygon fill="white" stroke="none" points="-4,4 -4,-184 164.494,-184 164.494,4 -4,4"/>
<!-- 能力 -->
<g id="node1" class="node"><title>能力</title>
<ellipse fill="none" stroke="black" cx="133.196" cy="-162" rx="27.0966" ry="18"/>
<text text-anchor="middle" x="133.196" y="-158.3" font-family="Times New Roman,serif" font-size="14.00">能力</text>
</g>
<!-- 教育 -->
<g id="node2" class="node"><title>教育</title>
<ellipse fill="none" stroke="black" cx="78.1961" cy="-90" rx="27.0966" ry="18"/>
<text text-anchor="middle" x="78.1961" y="-86.3" font-family="Times New Roman,serif" font-size="14.00">教育</text>
</g>
<!-- 能力&#45;&gt;教育 -->
<g id="edge1" class="edge"><title>能力&#45;&gt;教育</title>
<path fill="none" stroke="black" d="M121.262,-145.811C114.082,-136.673 104.792,-124.849 96.679,-114.524"/>
<polygon fill="black" stroke="black" points="99.4182,-112.345 90.4878,-106.644 93.9139,-116.67 99.4182,-112.345"/>
</g>
<!-- 工资 -->
<g id="node3" class="node"><title>工资</title>
<ellipse fill="none" stroke="black" cx="105.196" cy="-18" rx="27.0966" ry="18"/>
<text text-anchor="middle" x="105.196" y="-14.3" font-family="Times New Roman,serif" font-size="14.00">工资</text>
</g>
<!-- 能力&#45;&gt;工资 -->
<g id="edge2" class="edge"><title>能力&#45;&gt;工资</title>
<path fill="none" stroke="black" d="M129.819,-143.871C125.026,-119.564 116.203,-74.8187 110.523,-46.0132"/>
<polygon fill="black" stroke="black" points="113.954,-45.3232 108.586,-36.1893 107.086,-46.6775 113.954,-45.3232"/>
</g>
<!-- 教育&#45;&gt;工资 -->
<g id="edge3" class="edge"><title>教育&#45;&gt;工资</title>
<path fill="none" stroke="black" d="M84.5947,-72.411C87.7097,-64.3352 91.5298,-54.4312 95.0307,-45.3547"/>
<polygon fill="black" stroke="black" points="98.3225,-46.5458 98.6558,-35.9562 91.7915,-44.0267 98.3225,-46.5458"/>
</g>
<!-- 工具变量 -->
<g id="node4" class="node"><title>工具变量</title>
<ellipse fill="none" stroke="black" cx="44.1961" cy="-162" rx="44.393" ry="18"/>
<text text-anchor="middle" x="44.1961" y="-158.3" font-family="Times New Roman,serif" font-size="14.00">工具变量</text>
</g>
<!-- 工具变量&#45;&gt;教育 -->
<g id="edge4" class="edge"><title>工具变量&#45;&gt;教育</title>
<path fill="none" stroke="black" d="M52.4265,-144.055C56.4523,-135.767 61.3817,-125.618 65.8472,-116.424"/>
<polygon fill="black" stroke="black" points="69.0547,-117.831 70.2755,-107.307 62.7582,-114.773 69.0547,-117.831"/>
</g>
</g>
</svg>
