<?xml version="1.0" encoding="UTF-8" standalone="no"?>
<!DOCTYPE svg PUBLIC "-//W3C//DTD SVG 1.1//EN"
 "http://www.w3.org/Graphics/SVG/1.1/DTD/svg11.dtd">
<!-- Generated by graphviz version 2.38.0 (20140413.2041)
 -->
<!-- Title: %3 Pages: 1 -->
<svg width="191pt" height="260pt"
 viewBox="0.00 0.00 191.20 260.00" xmlns="http://www.w3.org/2000/svg" xmlns:xlink="http://www.w3.org/1999/xlink">
<g id="graph0" class="graph" transform="scale(1 1) rotate(0) translate(4 256)">
<title>%3</title>
<polygon fill="white" stroke="none" points="-4,4 -4,-256 187.196,-256 187.196,4 -4,4"/>
<!-- X -->
<g id="node1" class="node"><title>X</title>
<ellipse fill="none" stroke="black" cx="27" cy="-234" rx="27" ry="18"/>
<text text-anchor="middle" x="27" y="-230.3" font-family="Times New Roman,serif" font-size="14.00">X</text>
</g>
<!-- T -->
<g id="node2" class="node"><title>T</title>
<ellipse fill="none" stroke="gold" cx="27" cy="-162" rx="27" ry="18"/>
<text text-anchor="middle" x="27" y="-158.3" font-family="Times New Roman,serif" font-size="14.00">T</text>
</g>
<!-- X&#45;&gt;T -->
<g id="edge1" class="edge"><title>X&#45;&gt;T</title>
<path fill="none" stroke="black" d="M27,-215.697C27,-207.983 27,-198.712 27,-190.112"/>
<polygon fill="black" stroke="black" points="30.5001,-190.104 27,-180.104 23.5001,-190.104 30.5001,-190.104"/>
</g>
<!-- Y -->
<g id="node3" class="node"><title>Y</title>
<ellipse fill="none" stroke="black" cx="27" cy="-90" rx="27" ry="18"/>
<text text-anchor="middle" x="27" y="-86.3" font-family="Times New Roman,serif" font-size="14.00">Y</text>
</g>
<!-- T&#45;&gt;Y -->
<g id="edge2" class="edge"><title>T&#45;&gt;Y</title>
<path fill="none" stroke="black" d="M27,-143.697C27,-135.983 27,-126.712 27,-118.112"/>
<polygon fill="black" stroke="black" points="30.5001,-118.104 27,-108.104 23.5001,-118.104 30.5001,-118.104"/>
</g>
<!-- 治疗 -->
<g id="node4" class="node"><title>治疗</title>
<ellipse fill="none" stroke="gold" cx="107" cy="-90" rx="27.0966" ry="18"/>
<text text-anchor="middle" x="107" y="-86.3" font-family="Times New Roman,serif" font-size="14.00">治疗</text>
</g>
<!-- 天数 -->
<g id="node7" class="node"><title>天数</title>
<ellipse fill="none" stroke="black" cx="134" cy="-18" rx="27.0966" ry="18"/>
<text text-anchor="middle" x="134" y="-14.3" font-family="Times New Roman,serif" font-size="14.00">天数</text>
</g>
<!-- 治疗&#45;&gt;天数 -->
<g id="edge6" class="edge"><title>治疗&#45;&gt;天数</title>
<path fill="none" stroke="black" d="M113.399,-72.411C116.514,-64.3352 120.334,-54.4312 123.835,-45.3547"/>
<polygon fill="black" stroke="black" points="127.126,-46.5458 127.46,-35.9562 120.595,-44.0267 127.126,-46.5458"/>
</g>
<!-- 严重程度 -->
<g id="node5" class="node"><title>严重程度</title>
<ellipse fill="none" stroke="black" cx="139" cy="-234" rx="44.393" ry="18"/>
<text text-anchor="middle" x="139" y="-230.3" font-family="Times New Roman,serif" font-size="14.00">严重程度</text>
</g>
<!-- 医院 -->
<g id="node6" class="node"><title>医院</title>
<ellipse fill="none" stroke="black" cx="107" cy="-162" rx="27.0966" ry="18"/>
<text text-anchor="middle" x="107" y="-158.3" font-family="Times New Roman,serif" font-size="14.00">医院</text>
</g>
<!-- 严重程度&#45;&gt;医院 -->
<g id="edge3" class="edge"><title>严重程度&#45;&gt;医院</title>
<path fill="none" stroke="black" d="M131.254,-216.055C127.559,-207.973 123.055,-198.121 118.937,-189.112"/>
<polygon fill="black" stroke="black" points="122.016,-187.429 114.675,-179.789 115.649,-190.339 122.016,-187.429"/>
</g>
<!-- 严重程度&#45;&gt;天数 -->
<g id="edge4" class="edge"><title>严重程度&#45;&gt;天数</title>
<path fill="none" stroke="black" d="M140.672,-215.571C143.233,-185.993 147.392,-124.1 143,-72 142.283,-63.4991 140.931,-54.3119 139.488,-46.0122"/>
<polygon fill="black" stroke="black" points="142.914,-45.2892 137.654,-36.0925 136.031,-46.5623 142.914,-45.2892"/>
</g>
<!-- 医院&#45;&gt;治疗 -->
<g id="edge5" class="edge"><title>医院&#45;&gt;治疗</title>
<path fill="none" stroke="black" d="M107,-143.697C107,-135.983 107,-126.712 107,-118.112"/>
<polygon fill="black" stroke="black" points="110.5,-118.104 107,-108.104 103.5,-118.104 110.5,-118.104"/>
</g>
</g>
</svg>
