<?xml version="1.0" encoding="UTF-8" standalone="no"?>
<!DOCTYPE svg PUBLIC "-//W3C//DTD SVG 1.1//EN"
 "http://www.w3.org/Graphics/SVG/1.1/DTD/svg11.dtd">
<!-- Generated by graphviz version 2.38.0 (20140413.2041)
 -->
<!-- Title: %3 Pages: 1 -->
<svg width="89pt" height="260pt"
 viewBox="0.00 0.00 89.00 260.00" xmlns="http://www.w3.org/2000/svg" xmlns:xlink="http://www.w3.org/1999/xlink">
<g id="graph0" class="graph" transform="scale(1 1) rotate(0) translate(4 256)">
<title>%3</title>
<polygon fill="white" stroke="none" points="-4,4 -4,-256 85,-256 85,4 -4,4"/>
<!-- T -->
<g id="node1" class="node"><title>T</title>
<ellipse fill="none" stroke="gold" cx="54" cy="-234" rx="27" ry="18"/>
<text text-anchor="middle" x="54" y="-230.3" font-family="Times New Roman,serif" font-size="14.00">T</text>
</g>
<!-- X_1 -->
<g id="node2" class="node"><title>X_1</title>
<ellipse fill="none" stroke="red" cx="27" cy="-162" rx="27" ry="18"/>
<text text-anchor="middle" x="27" y="-158.3" font-family="Times New Roman,serif" font-size="14.00">X_1</text>
</g>
<!-- T&#45;&gt;X_1 -->
<g id="edge1" class="edge"><title>T&#45;&gt;X_1</title>
<path fill="none" stroke="black" d="M47.6014,-216.411C44.4864,-208.335 40.6663,-198.431 37.1654,-189.355"/>
<polygon fill="black" stroke="black" points="40.4045,-188.027 33.5403,-179.956 33.8735,-190.546 40.4045,-188.027"/>
</g>
<!-- X_2 -->
<g id="node4" class="node"><title>X_2</title>
<ellipse fill="none" stroke="red" cx="54" cy="-18" rx="27" ry="18"/>
<text text-anchor="middle" x="54" y="-14.3" font-family="Times New Roman,serif" font-size="14.00">X_2</text>
</g>
<!-- T&#45;&gt;X_2 -->
<g id="edge3" class="edge"><title>T&#45;&gt;X_2</title>
<path fill="none" stroke="black" d="M57.6538,-215.908C59.6758,-205.569 61.9808,-192.09 63,-180 67.0322,-132.17 67.0322,-119.83 63,-72 62.2834,-63.4991 60.9311,-54.3119 59.4884,-46.0122"/>
<polygon fill="black" stroke="black" points="62.9142,-45.2892 57.6538,-36.0925 56.0309,-46.5623 62.9142,-45.2892"/>
</g>
<!-- Y -->
<g id="node3" class="node"><title>Y</title>
<ellipse fill="none" stroke="black" cx="27" cy="-90" rx="27" ry="18"/>
<text text-anchor="middle" x="27" y="-86.3" font-family="Times New Roman,serif" font-size="14.00">Y</text>
</g>
<!-- X_1&#45;&gt;Y -->
<g id="edge2" class="edge"><title>X_1&#45;&gt;Y</title>
<path fill="none" stroke="black" d="M27,-143.697C27,-135.983 27,-126.712 27,-118.112"/>
<polygon fill="black" stroke="black" points="30.5001,-118.104 27,-108.104 23.5001,-118.104 30.5001,-118.104"/>
</g>
<!-- Y&#45;&gt;X_2 -->
<g id="edge4" class="edge"><title>Y&#45;&gt;X_2</title>
<path fill="none" stroke="black" d="M33.3986,-72.411C36.5136,-64.3352 40.3337,-54.4312 43.8346,-45.3547"/>
<polygon fill="black" stroke="black" points="47.1265,-46.5458 47.4597,-35.9562 40.5955,-44.0267 47.1265,-46.5458"/>
</g>
</g>
</svg>
