<?xml version="1.0" encoding="UTF-8" standalone="no"?>
<!DOCTYPE svg PUBLIC "-//W3C//DTD SVG 1.1//EN"
 "http://www.w3.org/Graphics/SVG/1.1/DTD/svg11.dtd">
<!-- Generated by graphviz version 2.38.0 (20140413.2041)
 -->
<!-- Title: %3 Pages: 1 -->
<svg width="436pt" height="116pt"
 viewBox="0.00 0.00 435.75 116.00" xmlns="http://www.w3.org/2000/svg" xmlns:xlink="http://www.w3.org/1999/xlink">
<g id="graph0" class="graph" transform="scale(1 1) rotate(0) translate(4 112)">
<title>%3</title>
<polygon fill="white" stroke="none" points="-4,4 -4,-112 431.747,-112 431.747,4 -4,4"/>
<!-- X -->
<g id="node1" class="node"><title>X</title>
<ellipse fill="none" stroke="black" cx="27" cy="-90" rx="27" ry="18"/>
<text text-anchor="middle" x="27" y="-86.3" font-family="Times New Roman,serif" font-size="14.00">X</text>
</g>
<!-- Y -->
<g id="node2" class="node"><title>Y</title>
<ellipse fill="none" stroke="black" cx="63" cy="-18" rx="27" ry="18"/>
<text text-anchor="middle" x="63" y="-14.3" font-family="Times New Roman,serif" font-size="14.00">Y</text>
</g>
<!-- X&#45;&gt;Y -->
<g id="edge1" class="edge"><title>X&#45;&gt;Y</title>
<path fill="none" stroke="black" d="M35.3496,-72.7646C39.7115,-64.2831 45.1469,-53.7144 50.0413,-44.1974"/>
<polygon fill="black" stroke="black" points="53.2346,-45.6409 54.6957,-35.1473 47.0096,-42.4395 53.2346,-45.6409"/>
</g>
<!-- T -->
<g id="node3" class="node"><title>T</title>
<ellipse fill="none" stroke="gold" cx="99" cy="-90" rx="27" ry="18"/>
<text text-anchor="middle" x="99" y="-86.3" font-family="Times New Roman,serif" font-size="14.00">T</text>
</g>
<!-- T&#45;&gt;Y -->
<g id="edge2" class="edge"><title>T&#45;&gt;Y</title>
<path fill="none" stroke="black" d="M90.6504,-72.7646C86.2885,-64.2831 80.8531,-53.7144 75.9587,-44.1974"/>
<polygon fill="black" stroke="black" points="78.9904,-42.4395 71.3043,-35.1473 72.7654,-45.6409 78.9904,-42.4395"/>
</g>
<!-- 电子邮件 -->
<g id="node4" class="node"><title>电子邮件</title>
<ellipse fill="none" stroke="gold" cx="188" cy="-90" rx="44.393" ry="18"/>
<text text-anchor="middle" x="188" y="-86.3" font-family="Times New Roman,serif" font-size="14.00">电子邮件</text>
</g>
<!-- 付款 -->
<g id="node6" class="node"><title>付款</title>
<ellipse fill="none" stroke="black" cx="294" cy="-18" rx="27.0966" ry="18"/>
<text text-anchor="middle" x="294" y="-14.3" font-family="Times New Roman,serif" font-size="14.00">付款</text>
</g>
<!-- 电子邮件&#45;&gt;付款 -->
<g id="edge5" class="edge"><title>电子邮件&#45;&gt;付款</title>
<path fill="none" stroke="black" d="M210.221,-74.3257C226.661,-63.4694 249.146,-48.6203 266.684,-37.0389"/>
<polygon fill="black" stroke="black" points="268.93,-39.7502 275.346,-31.3189 265.072,-33.909 268.93,-39.7502"/>
</g>
<!-- 信用额度 -->
<g id="node5" class="node"><title>信用额度</title>
<ellipse fill="none" stroke="black" cx="294" cy="-90" rx="44.393" ry="18"/>
<text text-anchor="middle" x="294" y="-86.3" font-family="Times New Roman,serif" font-size="14.00">信用额度</text>
</g>
<!-- 信用额度&#45;&gt;付款 -->
<g id="edge3" class="edge"><title>信用额度&#45;&gt;付款</title>
<path fill="none" stroke="black" d="M294,-71.6966C294,-63.9827 294,-54.7125 294,-46.1124"/>
<polygon fill="black" stroke="black" points="297.5,-46.1043 294,-36.1043 290.5,-46.1044 297.5,-46.1043"/>
</g>
<!-- 风险分 -->
<g id="node7" class="node"><title>风险分</title>
<ellipse fill="none" stroke="black" cx="392" cy="-90" rx="35.9954" ry="18"/>
<text text-anchor="middle" x="392" y="-86.3" font-family="Times New Roman,serif" font-size="14.00">风险分</text>
</g>
<!-- 风险分&#45;&gt;付款 -->
<g id="edge4" class="edge"><title>风险分&#45;&gt;付款</title>
<path fill="none" stroke="black" d="M372.168,-74.8345C357.256,-64.1829 336.677,-49.4836 320.377,-37.8409"/>
<polygon fill="black" stroke="black" points="321.997,-34.6966 311.825,-31.7323 317.928,-40.3928 321.997,-34.6966"/>
</g>
</g>
</svg>
