<?xml version="1.0" encoding="UTF-8" standalone="no"?>
<!DOCTYPE svg PUBLIC "-//W3C//DTD SVG 1.1//EN"
 "http://www.w3.org/Graphics/SVG/1.1/DTD/svg11.dtd">
<!-- Generated by graphviz version 2.38.0 (20140413.2041)
 -->
<!-- Title: %3 Pages: 1 -->
<svg width="292pt" height="260pt"
 viewBox="0.00 0.00 291.94 260.00" xmlns="http://www.w3.org/2000/svg" xmlns:xlink="http://www.w3.org/1999/xlink">
<g id="graph0" class="graph" transform="scale(1 1) rotate(0) translate(4 256)">
<title>%3</title>
<polygon fill="white" stroke="none" points="-4,4 -4,-256 287.943,-256 287.943,4 -4,4"/>
<!-- 电子邮件 -->
<g id="node1" class="node"><title>电子邮件</title>
<ellipse fill="none" stroke="black" cx="44.1961" cy="-234" rx="44.393" ry="18"/>
<text text-anchor="middle" x="44.1961" y="-230.3" font-family="Times New Roman,serif" font-size="14.00">电子邮件</text>
</g>
<!-- 支付 -->
<g id="node2" class="node"><title>支付</title>
<ellipse fill="none" stroke="black" cx="186.196" cy="-18" rx="27.0966" ry="18"/>
<text text-anchor="middle" x="186.196" y="-14.3" font-family="Times New Roman,serif" font-size="14.00">支付</text>
</g>
<!-- 电子邮件&#45;&gt;支付 -->
<g id="edge1" class="edge"><title>电子邮件&#45;&gt;支付</title>
<path fill="none" stroke="black" d="M40.8301,-215.975C35.5742,-184.245 29.0773,-115.366 61.1961,-72 81.9999,-43.9112 120.644,-30.5801 149.48,-24.3346"/>
<polygon fill="black" stroke="black" points="150.474,-27.7063 159.609,-22.34 149.121,-20.8382 150.474,-27.7063"/>
</g>
<!-- 打开 -->
<g id="node3" class="node"><title>打开</title>
<ellipse fill="none" stroke="black" cx="150.196" cy="-162" rx="27.0966" ry="18"/>
<text text-anchor="middle" x="150.196" y="-158.3" font-family="Times New Roman,serif" font-size="14.00">打开</text>
</g>
<!-- 电子邮件&#45;&gt;打开 -->
<g id="edge2" class="edge"><title>电子邮件&#45;&gt;打开</title>
<path fill="none" stroke="black" d="M66.4172,-218.326C82.8567,-207.469 105.342,-192.62 122.88,-181.039"/>
<polygon fill="black" stroke="black" points="125.126,-183.75 131.542,-175.319 121.268,-177.909 125.126,-183.75"/>
</g>
<!-- 支付协议 -->
<g id="node4" class="node"><title>支付协议</title>
<ellipse fill="none" stroke="black" cx="114.196" cy="-90" rx="44.393" ry="18"/>
<text text-anchor="middle" x="114.196" y="-86.3" font-family="Times New Roman,serif" font-size="14.00">支付协议</text>
</g>
<!-- 电子邮件&#45;&gt;支付协议 -->
<g id="edge3" class="edge"><title>电子邮件&#45;&gt;支付协议</title>
<path fill="none" stroke="black" d="M52.5009,-216.153C64.6047,-191.6 87.1954,-145.773 101.424,-116.908"/>
<polygon fill="black" stroke="black" points="104.62,-118.342 105.902,-107.825 98.3412,-115.247 104.62,-118.342"/>
</g>
<!-- 打开&#45;&gt;支付 -->
<g id="edge4" class="edge"><title>打开&#45;&gt;支付</title>
<path fill="none" stroke="black" d="M156.147,-143.943C159.629,-133.616 163.962,-120.139 167.196,-108 172.652,-87.5182 177.608,-64.0616 181.089,-46.3729"/>
<polygon fill="black" stroke="black" points="184.597,-46.665 183.057,-36.1827 177.724,-45.3374 184.597,-46.665"/>
</g>
<!-- 打开&#45;&gt;支付协议 -->
<g id="edge5" class="edge"><title>打开&#45;&gt;支付协议</title>
<path fill="none" stroke="black" d="M141.846,-144.765C137.653,-136.611 132.468,-126.529 127.725,-117.307"/>
<polygon fill="black" stroke="black" points="130.689,-115.416 123.003,-108.124 124.464,-118.618 130.689,-115.416"/>
</g>
<!-- 支付协议&#45;&gt;支付 -->
<g id="edge6" class="edge"><title>支付协议&#45;&gt;支付</title>
<path fill="none" stroke="black" d="M130.534,-73.1159C140.416,-63.508 153.15,-51.1277 163.944,-40.6338"/>
<polygon fill="black" stroke="black" points="166.662,-42.873 171.392,-33.3927 161.782,-37.854 166.662,-42.873"/>
</g>
<!-- 信用额度 -->
<g id="node5" class="node"><title>信用额度</title>
<ellipse fill="none" stroke="black" cx="150.196" cy="-234" rx="44.393" ry="18"/>
<text text-anchor="middle" x="150.196" y="-230.3" font-family="Times New Roman,serif" font-size="14.00">信用额度</text>
</g>
<!-- 信用额度&#45;&gt;支付 -->
<g id="edge7" class="edge"><title>信用额度&#45;&gt;支付</title>
<path fill="none" stroke="black" d="M165.057,-216.707C173.011,-206.859 182.011,-193.609 186.196,-180 200.147,-134.634 195.59,-78.6157 190.941,-46.0362"/>
<polygon fill="black" stroke="black" points="194.367,-45.2869 189.387,-35.9353 187.448,-46.3512 194.367,-45.2869"/>
</g>
<!-- 信用额度&#45;&gt;打开 -->
<g id="edge8" class="edge"><title>信用额度&#45;&gt;打开</title>
<path fill="none" stroke="black" d="M150.196,-215.697C150.196,-207.983 150.196,-198.712 150.196,-190.112"/>
<polygon fill="black" stroke="black" points="153.696,-190.104 150.196,-180.104 146.696,-190.104 153.696,-190.104"/>
</g>
<!-- 信用额度&#45;&gt;支付协议 -->
<g id="edge9" class="edge"><title>信用额度&#45;&gt;支付协议</title>
<path fill="none" stroke="black" d="M135.335,-216.707C127.381,-206.859 118.381,-193.609 114.196,-180 108.037,-159.97 108.404,-136.184 110.11,-118.244"/>
<polygon fill="black" stroke="black" points="113.603,-118.505 111.265,-108.172 106.649,-117.708 113.603,-118.505"/>
</g>
<!-- 风险分 -->
<g id="node6" class="node"><title>风险分</title>
<ellipse fill="none" stroke="black" cx="248.196" cy="-234" rx="35.9954" ry="18"/>
<text text-anchor="middle" x="248.196" y="-230.3" font-family="Times New Roman,serif" font-size="14.00">风险分</text>
</g>
<!-- 风险分&#45;&gt;支付 -->
<g id="edge10" class="edge"><title>风险分&#45;&gt;支付</title>
<path fill="none" stroke="black" d="M245.041,-215.807C239.361,-186.062 226.386,-123.263 209.196,-72 206.138,-62.8793 202.143,-53.1539 198.342,-44.5569"/>
<polygon fill="black" stroke="black" points="201.516,-43.0806 194.194,-35.4225 195.142,-45.9749 201.516,-43.0806"/>
</g>
<!-- 风险分&#45;&gt;打开 -->
<g id="edge11" class="edge"><title>风险分&#45;&gt;打开</title>
<path fill="none" stroke="black" d="M228.364,-218.834C213.452,-208.183 192.873,-193.484 176.573,-181.841"/>
<polygon fill="black" stroke="black" points="178.193,-178.697 168.021,-175.732 174.124,-184.393 178.193,-178.697"/>
</g>
<!-- 风险分&#45;&gt;支付协议 -->
<g id="edge12" class="edge"><title>风险分&#45;&gt;支付协议</title>
<path fill="none" stroke="black" d="M238.883,-216.376C227.839,-197.536 208.141,-166.525 186.196,-144 174.29,-131.779 159.334,-120.282 146.142,-111.139"/>
<polygon fill="black" stroke="black" points="148.023,-108.186 137.778,-105.488 144.104,-113.987 148.023,-108.186"/>
</g>
</g>
</svg>
