<?xml version="1.0" encoding="UTF-8" standalone="no"?>
<!DOCTYPE svg PUBLIC "-//W3C//DTD SVG 1.1//EN"
 "http://www.w3.org/Graphics/SVG/1.1/DTD/svg11.dtd">
<!-- Generated by graphviz version 2.38.0 (20140413.2041)
 -->
<!-- Title: %3 Pages: 1 -->
<svg width="490pt" height="116pt"
 viewBox="0.00 0.00 490.20 116.00" xmlns="http://www.w3.org/2000/svg" xmlns:xlink="http://www.w3.org/1999/xlink">
<g id="graph0" class="graph" transform="scale(1 1) rotate(0) translate(4 112)">
<title>%3</title>
<polygon fill="white" stroke="none" points="-4,4 -4,-112 486.196,-112 486.196,4 -4,4"/>
<!-- C -->
<g id="node1" class="node"><title>C</title>
<ellipse fill="none" stroke="black" cx="63" cy="-90" rx="27" ry="18"/>
<text text-anchor="middle" x="63" y="-86.3" font-family="Times New Roman,serif" font-size="14.00">C</text>
</g>
<!-- A -->
<g id="node2" class="node"><title>A</title>
<ellipse fill="none" stroke="black" cx="27" cy="-18" rx="27" ry="18"/>
<text text-anchor="middle" x="27" y="-14.3" font-family="Times New Roman,serif" font-size="14.00">A</text>
</g>
<!-- C&#45;&gt;A -->
<g id="edge1" class="edge"><title>C&#45;&gt;A</title>
<path fill="none" stroke="black" d="M54.6504,-72.7646C50.2885,-64.2831 44.8531,-53.7144 39.9587,-44.1974"/>
<polygon fill="black" stroke="black" points="42.9904,-42.4395 35.3043,-35.1473 36.7654,-45.6409 42.9904,-42.4395"/>
</g>
<!-- B -->
<g id="node3" class="node"><title>B</title>
<ellipse fill="none" stroke="black" cx="99" cy="-18" rx="27" ry="18"/>
<text text-anchor="middle" x="99" y="-14.3" font-family="Times New Roman,serif" font-size="14.00">B</text>
</g>
<!-- C&#45;&gt;B -->
<g id="edge2" class="edge"><title>C&#45;&gt;B</title>
<path fill="none" stroke="black" d="M71.3496,-72.7646C75.7115,-64.2831 81.1469,-53.7144 86.0413,-44.1974"/>
<polygon fill="black" stroke="black" points="89.2346,-45.6409 90.6957,-35.1473 83.0096,-42.4395 89.2346,-45.6409"/>
</g>
<!-- X -->
<g id="node4" class="node"><title>X</title>
<ellipse fill="none" stroke="red" cx="207" cy="-90" rx="27" ry="18"/>
<text text-anchor="middle" x="207" y="-86.3" font-family="Times New Roman,serif" font-size="14.00">X</text>
</g>
<!-- Y -->
<g id="node5" class="node"><title>Y</title>
<ellipse fill="none" stroke="black" cx="171" cy="-18" rx="27" ry="18"/>
<text text-anchor="middle" x="171" y="-14.3" font-family="Times New Roman,serif" font-size="14.00">Y</text>
</g>
<!-- X&#45;&gt;Y -->
<g id="edge3" class="edge"><title>X&#45;&gt;Y</title>
<path fill="none" stroke="black" d="M198.65,-72.7646C194.288,-64.2831 188.853,-53.7144 183.959,-44.1974"/>
<polygon fill="black" stroke="black" points="186.99,-42.4395 179.304,-35.1473 180.765,-45.6409 186.99,-42.4395"/>
</g>
<!-- Z -->
<g id="node6" class="node"><title>Z</title>
<ellipse fill="none" stroke="black" cx="243" cy="-18" rx="27" ry="18"/>
<text text-anchor="middle" x="243" y="-14.3" font-family="Times New Roman,serif" font-size="14.00">Z</text>
</g>
<!-- X&#45;&gt;Z -->
<g id="edge4" class="edge"><title>X&#45;&gt;Z</title>
<path fill="none" stroke="black" d="M215.35,-72.7646C219.712,-64.2831 225.147,-53.7144 230.041,-44.1974"/>
<polygon fill="black" stroke="black" points="233.235,-45.6409 234.696,-35.1473 227.01,-42.4395 233.235,-45.6409"/>
</g>
<!-- 统计学 -->
<g id="node7" class="node"><title>统计学</title>
<ellipse fill="none" stroke="black" cx="385" cy="-90" rx="35.9954" ry="18"/>
<text text-anchor="middle" x="385" y="-86.3" font-family="Times New Roman,serif" font-size="14.00">统计学</text>
</g>
<!-- 因果推断 -->
<g id="node8" class="node"><title>因果推断</title>
<ellipse fill="none" stroke="black" cx="332" cy="-18" rx="44.393" ry="18"/>
<text text-anchor="middle" x="332" y="-14.3" font-family="Times New Roman,serif" font-size="14.00">因果推断</text>
</g>
<!-- 统计学&#45;&gt;因果推断 -->
<g id="edge5" class="edge"><title>统计学&#45;&gt;因果推断</title>
<path fill="none" stroke="black" d="M372.708,-72.7646C366.18,-64.143 358.019,-53.3647 350.722,-43.7267"/>
<polygon fill="black" stroke="black" points="353.421,-41.4933 344.594,-35.6334 347.84,-45.7187 353.421,-41.4933"/>
</g>
<!-- 机器学习 -->
<g id="node9" class="node"><title>机器学习</title>
<ellipse fill="none" stroke="black" cx="438" cy="-18" rx="44.393" ry="18"/>
<text text-anchor="middle" x="438" y="-14.3" font-family="Times New Roman,serif" font-size="14.00">机器学习</text>
</g>
<!-- 统计学&#45;&gt;机器学习 -->
<g id="edge6" class="edge"><title>统计学&#45;&gt;机器学习</title>
<path fill="none" stroke="black" d="M397.292,-72.7646C403.82,-64.143 411.981,-53.3647 419.278,-43.7267"/>
<polygon fill="black" stroke="black" points="422.16,-45.7187 425.406,-35.6334 416.579,-41.4933 422.16,-45.7187"/>
</g>
</g>
</svg>
