<?xml version="1.0" encoding="UTF-8" standalone="no"?>
<!DOCTYPE svg PUBLIC "-//W3C//DTD SVG 1.1//EN"
 "http://www.w3.org/Graphics/SVG/1.1/DTD/svg11.dtd">
<!-- Generated by graphviz version 2.40.1 (20161225.0304)
 -->
<!-- Title: %3 Pages: 1 -->
<svg width="294pt" height="197pt"
 viewBox="0.00 0.00 293.71 197.10" xmlns="http://www.w3.org/2000/svg" xmlns:xlink="http://www.w3.org/1999/xlink">
<g id="graph0" class="graph" transform="scale(1 1) rotate(0) translate(4 193.0965)">
<title>%3</title>
<polygon fill="#ffffff" stroke="transparent" points="-4,4 -4,-193.0965 289.7107,-193.0965 289.7107,4 -4,4"/>
<!-- A -->
<g id="node1" class="node">
<title>A</title>
<ellipse fill="none" stroke="#000000" cx="27" cy="-169.5804" rx="27" ry="18"/>
<text text-anchor="middle" x="27" y="-165.3804" font-family="Times,serif" font-size="14.00" fill="#000000">A</text>
</g>
<!-- B -->
<g id="node2" class="node">
<title>B</title>
<ellipse fill="none" stroke="#000000" cx="27" cy="-94.5483" rx="27" ry="18"/>
<text text-anchor="middle" x="27" y="-90.3483" font-family="Times,serif" font-size="14.00" fill="#000000">B</text>
</g>
<!-- A&#45;&gt;B -->
<g id="edge1" class="edge">
<title>A&#45;&gt;B</title>
<path fill="none" stroke="#000000" d="M27,-151.4172C27,-142.9091 27,-132.5722 27,-123.0569"/>
<polygon fill="#000000" stroke="#000000" points="30.5001,-122.8042 27,-112.8043 23.5001,-122.8043 30.5001,-122.8042"/>
</g>
<!-- C -->
<g id="node3" class="node">
<title>C</title>
<ellipse fill="none" stroke="#000000" cx="27" cy="-19.5161" rx="27" ry="18"/>
<text text-anchor="middle" x="27" y="-15.3161" font-family="Times,serif" font-size="14.00" fill="#000000">C</text>
</g>
<!-- B&#45;&gt;C -->
<g id="edge2" class="edge">
<title>B&#45;&gt;C</title>
<path fill="none" stroke="#000000" d="M27,-76.3851C27,-67.8769 27,-57.54 27,-48.0247"/>
<polygon fill="#000000" stroke="#000000" points="30.5001,-47.772 27,-37.7721 23.5001,-47.7721 30.5001,-47.772"/>
</g>
<!-- X -->
<g id="node4" class="node">
<title>X</title>
<ellipse fill="none" stroke="#000000" cx="99" cy="-169.5804" rx="27" ry="18"/>
<text text-anchor="middle" x="99" y="-165.3804" font-family="Times,serif" font-size="14.00" fill="#000000">X</text>
</g>
<!-- Y -->
<g id="node5" class="node">
<title>Y</title>
<ellipse fill="none" stroke="#ff0000" cx="99" cy="-94.5483" rx="27" ry="18"/>
<text text-anchor="middle" x="99" y="-90.3483" font-family="Times,serif" font-size="14.00" fill="#000000">Y</text>
</g>
<!-- X&#45;&gt;Y -->
<g id="edge3" class="edge">
<title>X&#45;&gt;Y</title>
<path fill="none" stroke="#000000" d="M99,-151.4172C99,-142.9091 99,-132.5722 99,-123.0569"/>
<polygon fill="#000000" stroke="#000000" points="102.5001,-122.8042 99,-112.8043 95.5001,-122.8043 102.5001,-122.8042"/>
</g>
<!-- Z -->
<g id="node6" class="node">
<title>Z</title>
<ellipse fill="none" stroke="#000000" cx="99" cy="-19.5161" rx="27" ry="18"/>
<text text-anchor="middle" x="99" y="-15.3161" font-family="Times,serif" font-size="14.00" fill="#000000">Z</text>
</g>
<!-- Y&#45;&gt;Z -->
<g id="edge4" class="edge">
<title>Y&#45;&gt;Z</title>
<path fill="none" stroke="#000000" d="M99,-76.3851C99,-67.8769 99,-57.54 99,-48.0247"/>
<polygon fill="#000000" stroke="#000000" points="102.5001,-47.772 99,-37.7721 95.5001,-47.7721 102.5001,-47.772"/>
</g>
<!-- 因果推断知识 -->
<g id="node7" class="node">
<title>因果推断知识</title>
<ellipse fill="none" stroke="#000000" cx="215" cy="-169.5804" rx="70.922" ry="19.5322"/>
<text text-anchor="middle" x="215" y="-168.1804" font-family="Times,serif" font-size="14.00" fill="#000000">因果推断知识</text>
</g>
<!-- 解决业务问题 -->
<g id="node8" class="node">
<title>解决业务问题</title>
<ellipse fill="none" stroke="#000000" cx="215" cy="-94.5483" rx="70.922" ry="19.5322"/>
<text text-anchor="middle" x="215" y="-93.1482" font-family="Times,serif" font-size="14.00" fill="#000000">解决业务问题</text>
</g>
<!-- 因果推断知识&#45;&gt;解决业务问题 -->
<g id="edge5" class="edge">
<title>因果推断知识&#45;&gt;解决业务问题</title>
<path fill="none" stroke="#000000" d="M215,-149.8666C215,-142.026 215,-132.8349 215,-124.2212"/>
<polygon fill="#000000" stroke="#000000" points="218.5001,-124.1304 215,-114.1304 211.5001,-124.1305 218.5001,-124.1304"/>
</g>
<!-- 职位晋升 -->
<g id="node9" class="node">
<title>职位晋升</title>
<ellipse fill="none" stroke="#000000" cx="215" cy="-19.5161" rx="50.8235" ry="19.5322"/>
<text text-anchor="middle" x="215" y="-18.116" font-family="Times,serif" font-size="14.00" fill="#000000">职位晋升</text>
</g>
<!-- 解决业务问题&#45;&gt;职位晋升 -->
<g id="edge6" class="edge">
<title>解决业务问题&#45;&gt;职位晋升</title>
<path fill="none" stroke="#000000" d="M215,-74.8344C215,-66.9938 215,-57.8027 215,-49.1891"/>
<polygon fill="#000000" stroke="#000000" points="218.5001,-49.0982 215,-39.0982 211.5001,-49.0983 218.5001,-49.0982"/>
</g>
</g>
</svg>
