<?xml version="1.0" encoding="UTF-8" standalone="no"?>
<!DOCTYPE svg PUBLIC "-//W3C//DTD SVG 1.1//EN"
 "http://www.w3.org/Graphics/SVG/1.1/DTD/svg11.dtd">
<!-- Generated by graphviz version 2.38.0 (20140413.2041)
 -->
<!-- Title: %3 Pages: 1 -->
<svg width="225pt" height="188pt"
 viewBox="0.00 0.00 225.30 188.00" xmlns="http://www.w3.org/2000/svg" xmlns:xlink="http://www.w3.org/1999/xlink">
<g id="graph0" class="graph" transform="scale(1 1) rotate(0) translate(4 184)">
<title>%3</title>
<polygon fill="white" stroke="none" points="-4,4 -4,-184 221.298,-184 221.298,4 -4,4"/>
<!-- T -->
<g id="node1" class="node"><title>T</title>
<ellipse fill="none" stroke="black" cx="68" cy="-162" rx="27" ry="18"/>
<text text-anchor="middle" x="68" y="-158.3" font-family="Times New Roman,serif" font-size="14.00">T</text>
</g>
<!-- X -->
<g id="node2" class="node"><title>X</title>
<ellipse fill="none" stroke="red" cx="27" cy="-90" rx="27" ry="18"/>
<text text-anchor="middle" x="27" y="-86.3" font-family="Times New Roman,serif" font-size="14.00">X</text>
</g>
<!-- T&#45;&gt;X -->
<g id="edge1" class="edge"><title>T&#45;&gt;X</title>
<path fill="none" stroke="black" d="M58.4907,-144.765C53.4712,-136.195 47.2036,-125.494 41.5845,-115.9"/>
<polygon fill="black" stroke="black" points="44.5319,-114.007 36.4577,-107.147 38.4917,-117.545 44.5319,-114.007"/>
</g>
<!-- Y -->
<g id="node3" class="node"><title>Y</title>
<ellipse fill="none" stroke="black" cx="54" cy="-18" rx="27" ry="18"/>
<text text-anchor="middle" x="54" y="-14.3" font-family="Times New Roman,serif" font-size="14.00">Y</text>
</g>
<!-- T&#45;&gt;Y -->
<g id="edge2" class="edge"><title>T&#45;&gt;Y</title>
<path fill="none" stroke="black" d="M67.6077,-143.89C67.063,-125.936 65.8061,-96.9132 63,-72 62.0451,-63.5226 60.6247,-54.3421 59.193,-46.0413"/>
<polygon fill="black" stroke="black" points="62.6229,-45.339 57.4076,-36.1167 55.7335,-46.5785 62.6229,-45.339"/>
</g>
<!-- X&#45;&gt;Y -->
<g id="edge3" class="edge"><title>X&#45;&gt;Y</title>
<path fill="none" stroke="black" d="M33.3986,-72.411C36.5136,-64.3352 40.3337,-54.4312 43.8346,-45.3547"/>
<polygon fill="black" stroke="black" points="47.1265,-46.5458 47.4597,-35.9562 40.5955,-44.0267 47.1265,-46.5458"/>
</g>
<!-- 教育 -->
<g id="node4" class="node"><title>教育</title>
<ellipse fill="none" stroke="black" cx="167" cy="-162" rx="27.0966" ry="18"/>
<text text-anchor="middle" x="167" y="-158.3" font-family="Times New Roman,serif" font-size="14.00">教育</text>
</g>
<!-- 白领工作 -->
<g id="node5" class="node"><title>白领工作</title>
<ellipse fill="none" stroke="black" cx="154" cy="-90" rx="44.393" ry="18"/>
<text text-anchor="middle" x="154" y="-86.3" font-family="Times New Roman,serif" font-size="14.00">白领工作</text>
</g>
<!-- 教育&#45;&gt;白领工作 -->
<g id="edge4" class="edge"><title>教育&#45;&gt;白领工作</title>
<path fill="none" stroke="black" d="M163.853,-144.055C162.421,-136.346 160.691,-127.027 159.082,-118.364"/>
<polygon fill="black" stroke="black" points="162.475,-117.468 157.208,-108.275 155.593,-118.746 162.475,-117.468"/>
</g>
<!-- 工资 -->
<g id="node6" class="node"><title>工资</title>
<ellipse fill="none" stroke="black" cx="190" cy="-18" rx="27.0966" ry="18"/>
<text text-anchor="middle" x="190" y="-14.3" font-family="Times New Roman,serif" font-size="14.00">工资</text>
</g>
<!-- 教育&#45;&gt;工资 -->
<g id="edge5" class="edge"><title>教育&#45;&gt;工资</title>
<path fill="none" stroke="black" d="M181.845,-146.78C191.042,-136.895 202.02,-122.866 207,-108 213.925,-87.3303 208.371,-62.9598 201.82,-44.9515"/>
<polygon fill="black" stroke="black" points="204.979,-43.4218 198.043,-35.413 198.47,-45.9992 204.979,-43.4218"/>
</g>
<!-- 白领工作&#45;&gt;工资 -->
<g id="edge6" class="edge"><title>白领工作&#45;&gt;工资</title>
<path fill="none" stroke="black" d="M162.715,-72.055C166.977,-63.7665 172.197,-53.6178 176.925,-44.4241"/>
<polygon fill="black" stroke="black" points="180.153,-45.8006 181.614,-35.307 173.927,-42.5992 180.153,-45.8006"/>
</g>
</g>
</svg>
