<?xml version="1.0" encoding="UTF-8" standalone="no"?>
<!DOCTYPE svg PUBLIC "-//W3C//DTD SVG 1.1//EN"
 "http://www.w3.org/Graphics/SVG/1.1/DTD/svg11.dtd">
<!-- Generated by graphviz version 2.38.0 (20140413.2041)
 -->
<!-- Title: %3 Pages: 1 -->
<svg width="441pt" height="260pt"
 viewBox="0.00 0.00 440.89 260.00" xmlns="http://www.w3.org/2000/svg" xmlns:xlink="http://www.w3.org/1999/xlink">
<g id="graph0" class="graph" transform="scale(1 1) rotate(0) translate(4 256)">
<title>%3</title>
<polygon fill="white" stroke="none" points="-4,4 -4,-256 436.894,-256 436.894,4 -4,4"/>
<!-- X -->
<g id="node1" class="node"><title>X</title>
<ellipse fill="none" stroke="black" cx="54" cy="-234" rx="27" ry="18"/>
<text text-anchor="middle" x="54" y="-230.3" font-family="Times New Roman,serif" font-size="14.00">X</text>
</g>
<!-- U -->
<g id="node2" class="node"><title>U</title>
<ellipse fill="none" stroke="black" cx="54" cy="-162" rx="27" ry="18"/>
<text text-anchor="middle" x="54" y="-158.3" font-family="Times New Roman,serif" font-size="14.00">U</text>
</g>
<!-- X&#45;&gt;U -->
<g id="edge1" class="edge"><title>X&#45;&gt;U</title>
<path fill="none" stroke="black" d="M54,-215.697C54,-207.983 54,-198.712 54,-190.112"/>
<polygon fill="black" stroke="black" points="57.5001,-190.104 54,-180.104 50.5001,-190.104 57.5001,-190.104"/>
</g>
<!-- T -->
<g id="node3" class="node"><title>T</title>
<ellipse fill="none" stroke="black" cx="27" cy="-90" rx="27" ry="18"/>
<text text-anchor="middle" x="27" y="-86.3" font-family="Times New Roman,serif" font-size="14.00">T</text>
</g>
<!-- U&#45;&gt;T -->
<g id="edge2" class="edge"><title>U&#45;&gt;T</title>
<path fill="none" stroke="black" d="M47.6014,-144.411C44.4864,-136.335 40.6663,-126.431 37.1654,-117.355"/>
<polygon fill="black" stroke="black" points="40.4045,-116.027 33.5403,-107.956 33.8735,-118.546 40.4045,-116.027"/>
</g>
<!-- Y -->
<g id="node4" class="node"><title>Y</title>
<ellipse fill="none" stroke="black" cx="55" cy="-18" rx="27" ry="18"/>
<text text-anchor="middle" x="55" y="-14.3" font-family="Times New Roman,serif" font-size="14.00">Y</text>
</g>
<!-- U&#45;&gt;Y -->
<g id="edge4" class="edge"><title>U&#45;&gt;Y</title>
<path fill="none" stroke="black" d="M57.6538,-143.908C59.6758,-133.569 61.9808,-120.09 63,-108 64.3441,-92.0566 64.1974,-87.9551 63,-72 62.3634,-63.5179 61.1616,-54.3361 59.8792,-46.0356"/>
<polygon fill="black" stroke="black" points="63.3237,-45.412 58.2483,-36.1119 56.4164,-46.5472 63.3237,-45.412"/>
</g>
<!-- T&#45;&gt;Y -->
<g id="edge3" class="edge"><title>T&#45;&gt;Y</title>
<path fill="none" stroke="black" d="M33.6356,-72.411C36.9134,-64.2164 40.9442,-54.1395 44.6181,-44.9548"/>
<polygon fill="black" stroke="black" points="47.9477,-46.0546 48.412,-35.4699 41.4484,-43.4548 47.9477,-46.0546"/>
</g>
<!-- 智力 -->
<g id="node5" class="node"><title>智力</title>
<ellipse fill="none" stroke="black" cx="248" cy="-162" rx="27.0966" ry="18"/>
<text text-anchor="middle" x="248" y="-158.3" font-family="Times New Roman,serif" font-size="14.00">智力</text>
</g>
<!-- IQ -->
<g id="node6" class="node"><title>IQ</title>
<ellipse fill="none" stroke="black" cx="137" cy="-90" rx="27" ry="18"/>
<text text-anchor="middle" x="137" y="-86.3" font-family="Times New Roman,serif" font-size="14.00">IQ</text>
</g>
<!-- 智力&#45;&gt;IQ -->
<g id="edge5" class="edge"><title>智力&#45;&gt;IQ</title>
<path fill="none" stroke="black" d="M228.918,-148.967C211.287,-137.848 184.877,-121.193 164.884,-108.585"/>
<polygon fill="black" stroke="black" points="166.53,-105.484 156.204,-103.111 162.796,-111.405 166.53,-105.484"/>
</g>
<!-- SAT -->
<g id="node7" class="node"><title>SAT</title>
<ellipse fill="none" stroke="black" cx="211" cy="-90" rx="28.6953" ry="18"/>
<text text-anchor="middle" x="211" y="-86.3" font-family="Times New Roman,serif" font-size="14.00">SAT</text>
</g>
<!-- 智力&#45;&gt;SAT -->
<g id="edge6" class="edge"><title>智力&#45;&gt;SAT</title>
<path fill="none" stroke="black" d="M239.418,-144.765C234.999,-136.404 229.508,-126.016 224.535,-116.606"/>
<polygon fill="black" stroke="black" points="227.559,-114.839 219.792,-107.633 221.371,-118.11 227.559,-114.839"/>
</g>
<!-- 教育 -->
<g id="node10" class="node"><title>教育</title>
<ellipse fill="none" stroke="black" cx="285" cy="-90" rx="27.0966" ry="18"/>
<text text-anchor="middle" x="285" y="-86.3" font-family="Times New Roman,serif" font-size="14.00">教育</text>
</g>
<!-- 智力&#45;&gt;教育 -->
<g id="edge9" class="edge"><title>智力&#45;&gt;教育</title>
<path fill="none" stroke="black" d="M256.582,-144.765C261.065,-136.283 266.651,-125.714 271.681,-116.197"/>
<polygon fill="black" stroke="black" points="274.886,-117.624 276.465,-107.147 268.698,-114.353 274.886,-117.624"/>
</g>
<!-- 工资 -->
<g id="node11" class="node"><title>工资</title>
<ellipse fill="none" stroke="black" cx="312" cy="-18" rx="27.0966" ry="18"/>
<text text-anchor="middle" x="312" y="-14.3" font-family="Times New Roman,serif" font-size="14.00">工资</text>
</g>
<!-- 智力&#45;&gt;工资 -->
<g id="edge11" class="edge"><title>智力&#45;&gt;工资</title>
<path fill="none" stroke="black" d="M270.394,-151.687C287.719,-143.138 310.473,-128.651 321,-108 330.878,-88.6205 327.253,-63.8056 321.944,-45.304"/>
<polygon fill="black" stroke="black" points="325.27,-44.2127 318.896,-35.7494 318.601,-46.3401 325.27,-44.2127"/>
</g>
<!-- 父亲受教育水平 -->
<g id="node8" class="node"><title>父亲受教育水平</title>
<ellipse fill="none" stroke="black" cx="208" cy="-234" rx="68.7879" ry="18"/>
<text text-anchor="middle" x="208" y="-230.3" font-family="Times New Roman,serif" font-size="14.00">父亲受教育水平</text>
</g>
<!-- 父亲受教育水平&#45;&gt;智力 -->
<g id="edge7" class="edge"><title>父亲受教育水平&#45;&gt;智力</title>
<path fill="none" stroke="black" d="M217.683,-216.055C222.469,-207.679 228.341,-197.404 233.638,-188.134"/>
<polygon fill="black" stroke="black" points="236.759,-189.726 238.682,-179.307 230.681,-186.253 236.759,-189.726"/>
</g>
<!-- 母亲受教育水平 -->
<g id="node9" class="node"><title>母亲受教育水平</title>
<ellipse fill="none" stroke="black" cx="364" cy="-234" rx="68.7879" ry="18"/>
<text text-anchor="middle" x="364" y="-230.3" font-family="Times New Roman,serif" font-size="14.00">母亲受教育水平</text>
</g>
<!-- 母亲受教育水平&#45;&gt;智力 -->
<g id="edge8" class="edge"><title>母亲受教育水平&#45;&gt;智力</title>
<path fill="none" stroke="black" d="M337.967,-217.291C319.598,-206.206 295.007,-191.366 276.177,-180.003"/>
<polygon fill="black" stroke="black" points="277.819,-176.906 267.448,-174.736 274.202,-182.9 277.819,-176.906"/>
</g>
<!-- 教育&#45;&gt;工资 -->
<g id="edge10" class="edge"><title>教育&#45;&gt;工资</title>
<path fill="none" stroke="black" d="M291.399,-72.411C294.514,-64.3352 298.334,-54.4312 301.835,-45.3547"/>
<polygon fill="black" stroke="black" points="305.126,-46.5458 305.46,-35.9562 298.595,-44.0267 305.126,-46.5458"/>
</g>
</g>
</svg>
