<?xml version="1.0" encoding="UTF-8" standalone="no"?>
<!DOCTYPE svg PUBLIC "-//W3C//DTD SVG 1.1//EN"
 "http://www.w3.org/Graphics/SVG/1.1/DTD/svg11.dtd">
<!-- Generated by graphviz version 2.38.0 (20140413.2041)
 -->
<!-- Title: %3 Pages: 1 -->
<svg width="224pt" height="188pt"
 viewBox="0.00 0.00 224.49 188.00" xmlns="http://www.w3.org/2000/svg" xmlns:xlink="http://www.w3.org/1999/xlink">
<g id="graph0" class="graph" transform="scale(1 1) rotate(0) translate(4 184)">
<title>%3</title>
<polygon fill="white" stroke="none" points="-4,4 -4,-184 220.494,-184 220.494,4 -4,4"/>
<!-- 智力 -->
<g id="node1" class="node"><title>智力</title>
<ellipse fill="none" stroke="black" cx="64.2976" cy="-162" rx="27.0966" ry="18"/>
<text text-anchor="middle" x="64.2976" y="-158.3" font-family="Times New Roman,serif" font-size="14.00">智力</text>
</g>
<!-- 教育 -->
<g id="node2" class="node"><title>教育</title>
<ellipse fill="none" stroke="black" cx="27.2976" cy="-90" rx="27.0966" ry="18"/>
<text text-anchor="middle" x="27.2976" y="-86.3" font-family="Times New Roman,serif" font-size="14.00">教育</text>
</g>
<!-- 智力&#45;&gt;教育 -->
<g id="edge1" class="edge"><title>智力&#45;&gt;教育</title>
<path fill="none" stroke="black" d="M55.716,-144.765C51.233,-136.283 45.6466,-125.714 40.6162,-116.197"/>
<polygon fill="black" stroke="black" points="43.6,-114.353 35.8326,-107.147 37.4114,-117.624 43.6,-114.353"/>
</g>
<!-- 工资 -->
<g id="node3" class="node"><title>工资</title>
<ellipse fill="none" stroke="red" cx="45.2976" cy="-18" rx="27.0966" ry="18"/>
<text text-anchor="middle" x="45.2976" y="-14.3" font-family="Times New Roman,serif" font-size="14.00">工资</text>
</g>
<!-- 智力&#45;&gt;工资 -->
<g id="edge2" class="edge"><title>智力&#45;&gt;工资</title>
<path fill="none" stroke="black" d="M65.6983,-143.794C66.7958,-125.761 67.5159,-96.6749 63.2976,-72 61.7842,-63.1473 59.0174,-53.7787 56.0996,-45.4207"/>
<polygon fill="black" stroke="black" points="59.3007,-43.9865 52.5396,-35.8294 52.7381,-46.4224 59.3007,-43.9865"/>
</g>
<!-- 教育&#45;&gt;工资 -->
<g id="edge3" class="edge"><title>教育&#45;&gt;工资</title>
<path fill="none" stroke="black" d="M31.6549,-72.055C33.689,-64.1446 36.1588,-54.5398 38.435,-45.6879"/>
<polygon fill="black" stroke="black" points="41.8796,-46.3456 40.9804,-35.789 35.1002,-44.6023 41.8796,-46.3456"/>
</g>
<!-- 教育水平 -->
<g id="node4" class="node"><title>教育水平</title>
<ellipse fill="none" stroke="black" cx="172.298" cy="-162" rx="44.393" ry="18"/>
<text text-anchor="middle" x="172.298" y="-158.3" font-family="Times New Roman,serif" font-size="14.00">教育水平</text>
</g>
<!-- 收入 -->
<g id="node5" class="node"><title>收入</title>
<ellipse fill="none" stroke="red" cx="154.298" cy="-90" rx="27.0966" ry="18"/>
<text text-anchor="middle" x="154.298" y="-86.3" font-family="Times New Roman,serif" font-size="14.00">收入</text>
</g>
<!-- 教育水平&#45;&gt;收入 -->
<g id="edge4" class="edge"><title>教育水平&#45;&gt;收入</title>
<path fill="none" stroke="black" d="M167.94,-144.055C165.906,-136.145 163.436,-126.54 161.16,-117.688"/>
<polygon fill="black" stroke="black" points="164.495,-116.602 158.615,-107.789 157.716,-118.346 164.495,-116.602"/>
</g>
<!-- 投资 -->
<g id="node6" class="node"><title>投资</title>
<ellipse fill="none" stroke="black" cx="181.298" cy="-18" rx="27.0966" ry="18"/>
<text text-anchor="middle" x="181.298" y="-14.3" font-family="Times New Roman,serif" font-size="14.00">投资</text>
</g>
<!-- 教育水平&#45;&gt;投资 -->
<g id="edge5" class="edge"><title>教育水平&#45;&gt;投资</title>
<path fill="none" stroke="black" d="M179.59,-144.179C183.629,-133.937 188.239,-120.464 190.298,-108 193.714,-87.3169 191.025,-63.7011 187.72,-45.9958"/>
<polygon fill="black" stroke="black" points="191.07,-44.9071 185.631,-35.8145 184.212,-46.3139 191.07,-44.9071"/>
</g>
<!-- 收入&#45;&gt;投资 -->
<g id="edge6" class="edge"><title>收入&#45;&gt;投资</title>
<path fill="none" stroke="black" d="M160.696,-72.411C163.811,-64.3352 167.631,-54.4312 171.132,-45.3547"/>
<polygon fill="black" stroke="black" points="174.424,-46.5458 174.757,-35.9562 167.893,-44.0267 174.424,-46.5458"/>
</g>
</g>
</svg>
