<?xml version="1.0" encoding="UTF-8" standalone="no"?>
<!DOCTYPE svg PUBLIC "-//W3C//DTD SVG 1.1//EN"
 "http://www.w3.org/Graphics/SVG/1.1/DTD/svg11.dtd">
<!-- Generated by graphviz version 2.38.0 (20140413.2041)
 -->
<!-- Title: %3 Pages: 1 -->
<svg width="207pt" height="188pt"
 viewBox="0.00 0.00 207.30 188.00" xmlns="http://www.w3.org/2000/svg" xmlns:xlink="http://www.w3.org/1999/xlink">
<g id="graph0" class="graph" transform="scale(1 1) rotate(0) translate(4 184)">
<title>%3</title>
<polygon fill="white" stroke="none" points="-4,4 -4,-184 203.298,-184 203.298,4 -4,4"/>
<!-- X -->
<g id="node1" class="node"><title>X</title>
<ellipse fill="none" stroke="black" cx="66" cy="-162" rx="27" ry="18"/>
<text text-anchor="middle" x="66" y="-158.3" font-family="Times New Roman,serif" font-size="14.00">X</text>
</g>
<!-- T -->
<g id="node2" class="node"><title>T</title>
<ellipse fill="none" stroke="black" cx="27" cy="-90" rx="27" ry="18"/>
<text text-anchor="middle" x="27" y="-86.3" font-family="Times New Roman,serif" font-size="14.00">T</text>
</g>
<!-- X&#45;&gt;T -->
<g id="edge1" class="edge"><title>X&#45;&gt;T</title>
<path fill="none" stroke="black" d="M56.9546,-144.765C52.18,-136.195 46.2181,-125.494 40.8731,-115.9"/>
<polygon fill="black" stroke="black" points="43.9209,-114.18 35.9964,-107.147 37.8059,-117.586 43.9209,-114.18"/>
</g>
<!-- Y -->
<g id="node3" class="node"><title>Y</title>
<ellipse fill="none" stroke="red" cx="46" cy="-18" rx="27" ry="18"/>
<text text-anchor="middle" x="46" y="-14.3" font-family="Times New Roman,serif" font-size="14.00">Y</text>
</g>
<!-- X&#45;&gt;Y -->
<g id="edge2" class="edge"><title>X&#45;&gt;Y</title>
<path fill="none" stroke="black" d="M66.8179,-143.794C67.3501,-125.761 67.2876,-96.6757 63,-72 61.4711,-63.201 58.8304,-53.8474 56.0799,-45.4865"/>
<polygon fill="black" stroke="black" points="59.3306,-44.1781 52.7379,-35.8843 52.7195,-46.4791 59.3306,-44.1781"/>
</g>
<!-- T&#45;&gt;Y -->
<g id="edge3" class="edge"><title>T&#45;&gt;Y</title>
<path fill="none" stroke="black" d="M31.5994,-72.055C33.7465,-64.1446 36.3535,-54.5398 38.7561,-45.6879"/>
<polygon fill="black" stroke="black" points="42.2012,-46.3567 41.443,-35.789 35.4456,-44.523 42.2012,-46.3567"/>
</g>
<!-- 智力 -->
<g id="node4" class="node"><title>智力</title>
<ellipse fill="none" stroke="black" cx="161" cy="-162" rx="27.0966" ry="18"/>
<text text-anchor="middle" x="161" y="-158.3" font-family="Times New Roman,serif" font-size="14.00">智力</text>
</g>
<!-- 教育 -->
<g id="node5" class="node"><title>教育</title>
<ellipse fill="none" stroke="black" cx="145" cy="-90" rx="27.0966" ry="18"/>
<text text-anchor="middle" x="145" y="-86.3" font-family="Times New Roman,serif" font-size="14.00">教育</text>
</g>
<!-- 智力&#45;&gt;教育 -->
<g id="edge4" class="edge"><title>智力&#45;&gt;教育</title>
<path fill="none" stroke="black" d="M157.127,-144.055C155.345,-136.261 153.188,-126.822 151.189,-118.079"/>
<polygon fill="black" stroke="black" points="154.589,-117.244 148.949,-108.275 147.765,-118.804 154.589,-117.244"/>
</g>
<!-- 工资 -->
<g id="node6" class="node"><title>工资</title>
<ellipse fill="none" stroke="red" cx="172" cy="-18" rx="27.0966" ry="18"/>
<text text-anchor="middle" x="172" y="-14.3" font-family="Times New Roman,serif" font-size="14.00">工资</text>
</g>
<!-- 智力&#45;&gt;工资 -->
<g id="edge5" class="edge"><title>智力&#45;&gt;工资</title>
<path fill="none" stroke="black" d="M168.892,-144.731C173.426,-134.463 178.671,-120.771 181,-108 184.762,-87.3769 182.054,-63.7578 178.654,-46.036"/>
<polygon fill="black" stroke="black" points="181.992,-44.9029 176.499,-35.8432 175.143,-46.351 181.992,-44.9029"/>
</g>
<!-- 教育&#45;&gt;工资 -->
<g id="edge6" class="edge"><title>教育&#45;&gt;工资</title>
<path fill="none" stroke="black" d="M151.399,-72.411C154.514,-64.3352 158.334,-54.4312 161.835,-45.3547"/>
<polygon fill="black" stroke="black" points="165.126,-46.5458 165.46,-35.9562 158.595,-44.0267 165.126,-46.5458"/>
</g>
</g>
</svg>
