<?xml version="1.0" encoding="UTF-8" standalone="no"?>
<!DOCTYPE svg PUBLIC "-//W3C//DTD SVG 1.1//EN"
 "http://www.w3.org/Graphics/SVG/1.1/DTD/svg11.dtd">
<!-- Generated by graphviz version 2.38.0 (20140413.2041)
 -->
<!-- Title: %3 Pages: 1 -->
<svg width="380pt" height="260pt"
 viewBox="0.00 0.00 380.30 260.00" xmlns="http://www.w3.org/2000/svg" xmlns:xlink="http://www.w3.org/1999/xlink">
<g id="graph0" class="graph" transform="scale(1 1) rotate(0) translate(4 256)">
<title>%3</title>
<polygon fill="white" stroke="none" points="-4,4 -4,-256 376.298,-256 376.298,4 -4,4"/>
<!-- X1 -->
<g id="node1" class="node"><title>X1</title>
<ellipse fill="none" stroke="black" cx="27" cy="-162" rx="27" ry="18"/>
<text text-anchor="middle" x="27" y="-158.3" font-family="Times New Roman,serif" font-size="14.00">X1</text>
</g>
<!-- T -->
<g id="node2" class="node"><title>T</title>
<ellipse fill="none" stroke="black" cx="95" cy="-90" rx="27" ry="18"/>
<text text-anchor="middle" x="95" y="-86.3" font-family="Times New Roman,serif" font-size="14.00">T</text>
</g>
<!-- X1&#45;&gt;T -->
<g id="edge1" class="edge"><title>X1&#45;&gt;T</title>
<path fill="none" stroke="black" d="M41.0896,-146.496C50.5719,-136.735 63.2443,-123.69 73.9201,-112.7"/>
<polygon fill="black" stroke="black" points="76.471,-115.097 80.9284,-105.485 71.45,-110.22 76.471,-115.097"/>
</g>
<!-- Y -->
<g id="node3" class="node"><title>Y</title>
<ellipse fill="none" stroke="black" cx="95" cy="-18" rx="27" ry="18"/>
<text text-anchor="middle" x="95" y="-14.3" font-family="Times New Roman,serif" font-size="14.00">Y</text>
</g>
<!-- X1&#45;&gt;Y -->
<g id="edge4" class="edge"><title>X1&#45;&gt;Y</title>
<path fill="none" stroke="black" d="M31.6944,-144.076C37.086,-125.774 46.7826,-95.9975 59,-72 64.0718,-62.0378 70.7097,-51.7293 76.9024,-42.8817"/>
<polygon fill="black" stroke="black" points="79.8708,-44.7488 82.8722,-34.588 74.1895,-40.6594 79.8708,-44.7488"/>
</g>
<!-- T&#45;&gt;Y -->
<g id="edge2" class="edge"><title>T&#45;&gt;Y</title>
<path fill="none" stroke="black" d="M95,-71.6966C95,-63.9827 95,-54.7125 95,-46.1124"/>
<polygon fill="black" stroke="black" points="98.5001,-46.1043 95,-36.1043 91.5001,-46.1044 98.5001,-46.1043"/>
</g>
<!-- X2 -->
<g id="node4" class="node"><title>X2</title>
<ellipse fill="none" stroke="black" cx="99" cy="-162" rx="27" ry="18"/>
<text text-anchor="middle" x="99" y="-158.3" font-family="Times New Roman,serif" font-size="14.00">X2</text>
</g>
<!-- X2&#45;&gt;T -->
<g id="edge3" class="edge"><title>X2&#45;&gt;T</title>
<path fill="none" stroke="black" d="M98.0112,-143.697C97.5704,-135.983 97.0407,-126.712 96.5493,-118.112"/>
<polygon fill="black" stroke="black" points="100.042,-117.888 95.9774,-108.104 93.0537,-118.288 100.042,-117.888"/>
</g>
<!-- U -->
<g id="node5" class="node"><title>U</title>
<ellipse fill="none" stroke="black" cx="127" cy="-234" rx="27" ry="18"/>
<text text-anchor="middle" x="127" y="-230.3" font-family="Times New Roman,serif" font-size="14.00">U</text>
</g>
<!-- U&#45;&gt;Y -->
<g id="edge6" class="edge"><title>U&#45;&gt;Y</title>
<path fill="none" stroke="black" d="M131.157,-215.975C137.68,-185.958 147.928,-122.06 131,-72 127.419,-61.4101 121.101,-50.9667 114.748,-42.1869"/>
<polygon fill="black" stroke="black" points="117.345,-39.8225 108.482,-34.0178 111.791,-44.0827 117.345,-39.8225"/>
</g>
<!-- U&#45;&gt;X2 -->
<g id="edge5" class="edge"><title>U&#45;&gt;X2</title>
<path fill="none" stroke="black" d="M120.364,-216.411C117.087,-208.216 113.056,-198.14 109.382,-188.955"/>
<polygon fill="black" stroke="black" points="112.552,-187.455 105.588,-179.47 106.052,-190.055 112.552,-187.455"/>
</g>
<!-- 家庭收入 -->
<g id="node6" class="node"><title>家庭收入</title>
<ellipse fill="none" stroke="black" cx="226" cy="-162" rx="44.393" ry="18"/>
<text text-anchor="middle" x="226" y="-158.3" font-family="Times New Roman,serif" font-size="14.00">家庭收入</text>
</g>
<!-- 教育 -->
<g id="node7" class="node"><title>教育</title>
<ellipse fill="none" stroke="black" cx="308" cy="-90" rx="27.0966" ry="18"/>
<text text-anchor="middle" x="308" y="-86.3" font-family="Times New Roman,serif" font-size="14.00">教育</text>
</g>
<!-- 家庭收入&#45;&gt;教育 -->
<g id="edge7" class="edge"><title>家庭收入&#45;&gt;教育</title>
<path fill="none" stroke="black" d="M244.198,-145.465C255.887,-135.486 271.202,-122.413 283.897,-111.576"/>
<polygon fill="black" stroke="black" points="286.463,-113.987 291.796,-104.832 281.918,-108.663 286.463,-113.987"/>
</g>
<!-- 工资 -->
<g id="node8" class="node"><title>工资</title>
<ellipse fill="none" stroke="black" cx="308" cy="-18" rx="27.0966" ry="18"/>
<text text-anchor="middle" x="308" y="-14.3" font-family="Times New Roman,serif" font-size="14.00">工资</text>
</g>
<!-- 家庭收入&#45;&gt;工资 -->
<g id="edge10" class="edge"><title>家庭收入&#45;&gt;工资</title>
<path fill="none" stroke="black" d="M233.9,-144.276C242.636,-126.144 257.411,-96.5121 272,-72 277.803,-62.2503 284.696,-51.856 290.891,-42.8786"/>
<polygon fill="black" stroke="black" points="293.922,-44.6505 296.785,-34.4498 288.186,-40.6387 293.922,-44.6505"/>
</g>
<!-- 教育&#45;&gt;工资 -->
<g id="edge8" class="edge"><title>教育&#45;&gt;工资</title>
<path fill="none" stroke="black" d="M308,-71.6966C308,-63.9827 308,-54.7125 308,-46.1124"/>
<polygon fill="black" stroke="black" points="311.5,-46.1043 308,-36.1043 304.5,-46.1044 311.5,-46.1043"/>
</g>
<!-- SAT -->
<g id="node9" class="node"><title>SAT</title>
<ellipse fill="none" stroke="black" cx="317" cy="-162" rx="28.6953" ry="18"/>
<text text-anchor="middle" x="317" y="-158.3" font-family="Times New Roman,serif" font-size="14.00">SAT</text>
</g>
<!-- SAT&#45;&gt;教育 -->
<g id="edge9" class="edge"><title>SAT&#45;&gt;教育</title>
<path fill="none" stroke="black" d="M314.775,-143.697C313.783,-135.983 312.592,-126.712 311.486,-118.112"/>
<polygon fill="black" stroke="black" points="314.946,-117.576 310.199,-108.104 308.003,-118.469 314.946,-117.576"/>
</g>
<!-- 智力 -->
<g id="node10" class="node"><title>智力</title>
<ellipse fill="none" stroke="black" cx="345" cy="-234" rx="27.0966" ry="18"/>
<text text-anchor="middle" x="345" y="-230.3" font-family="Times New Roman,serif" font-size="14.00">智力</text>
</g>
<!-- 智力&#45;&gt;工资 -->
<g id="edge12" class="edge"><title>智力&#45;&gt;工资</title>
<path fill="none" stroke="black" d="M349.059,-215.929C351.306,-205.598 353.867,-192.12 355,-180 359.492,-131.961 361.633,-116.911 344,-72 339.914,-61.5944 333.489,-51.1906 327.189,-42.3908"/>
<polygon fill="black" stroke="black" points="329.829,-40.0774 321.024,-34.1851 324.233,-44.2823 329.829,-40.0774"/>
</g>
<!-- 智力&#45;&gt;SAT -->
<g id="edge11" class="edge"><title>智力&#45;&gt;SAT</title>
<path fill="none" stroke="black" d="M338.364,-216.411C335.134,-208.335 331.172,-198.431 327.542,-189.355"/>
<polygon fill="black" stroke="black" points="330.746,-187.941 323.782,-179.956 324.247,-190.541 330.746,-187.941"/>
</g>
</g>
</svg>
