<?xml version="1.0" encoding="UTF-8" standalone="no"?>
<!DOCTYPE svg PUBLIC "-//W3C//DTD SVG 1.1//EN"
 "http://www.w3.org/Graphics/SVG/1.1/DTD/svg11.dtd">
<!-- Generated by graphviz version 2.38.0 (20140413.2041)
 -->
<!-- Title: %3 Pages: 1 -->
<svg width="225pt" height="188pt"
 viewBox="0.00 0.00 225.30 188.00" xmlns="http://www.w3.org/2000/svg" xmlns:xlink="http://www.w3.org/1999/xlink">
<g id="graph0" class="graph" transform="scale(1 1) rotate(0) translate(4 184)">
<title>%3</title>
<polygon fill="white" stroke="none" points="-4,4 -4,-184 221.298,-184 221.298,4 -4,4"/>
<!-- T -->
<g id="node1" class="node"><title>T</title>
<ellipse fill="none" stroke="black" cx="45" cy="-162" rx="27" ry="18"/>
<text text-anchor="middle" x="45" y="-158.3" font-family="Times New Roman,serif" font-size="14.00">T</text>
</g>
<!-- X -->
<g id="node2" class="node"><title>X</title>
<ellipse fill="none" stroke="black" cx="27" cy="-18" rx="27" ry="18"/>
<text text-anchor="middle" x="27" y="-14.3" font-family="Times New Roman,serif" font-size="14.00">X</text>
</g>
<!-- T&#45;&gt;X -->
<g id="edge1" class="edge"><title>T&#45;&gt;X</title>
<path fill="none" stroke="black" d="M37.7071,-144.179C33.6683,-133.937 29.0588,-120.464 27,-108 23.6218,-87.5481 23.7843,-64.09 24.7042,-46.3932"/>
<polygon fill="black" stroke="black" points="28.2108,-46.3985 25.35,-36.1972 21.2248,-45.956 28.2108,-46.3985"/>
</g>
<!-- Y -->
<g id="node3" class="node"><title>Y</title>
<ellipse fill="none" stroke="red" cx="63" cy="-90" rx="27" ry="18"/>
<text text-anchor="middle" x="63" y="-86.3" font-family="Times New Roman,serif" font-size="14.00">Y</text>
</g>
<!-- T&#45;&gt;Y -->
<g id="edge2" class="edge"><title>T&#45;&gt;Y</title>
<path fill="none" stroke="black" d="M49.3573,-144.055C51.3914,-136.145 53.8612,-126.54 56.1374,-117.688"/>
<polygon fill="black" stroke="black" points="59.5821,-118.346 58.6828,-107.789 52.8026,-116.602 59.5821,-118.346"/>
</g>
<!-- Y&#45;&gt;X -->
<g id="edge3" class="edge"><title>Y&#45;&gt;X</title>
<path fill="none" stroke="black" d="M54.6504,-72.7646C50.2885,-64.2831 44.8531,-53.7144 39.9587,-44.1974"/>
<polygon fill="black" stroke="black" points="42.9904,-42.4395 35.3043,-35.1473 36.7654,-45.6409 42.9904,-42.4395"/>
</g>
<!-- 教育水平 -->
<g id="node4" class="node"><title>教育水平</title>
<ellipse fill="none" stroke="black" cx="153" cy="-162" rx="44.393" ry="18"/>
<text text-anchor="middle" x="153" y="-158.3" font-family="Times New Roman,serif" font-size="14.00">教育水平</text>
</g>
<!-- 投资 -->
<g id="node5" class="node"><title>投资</title>
<ellipse fill="none" stroke="black" cx="162" cy="-18" rx="27.0966" ry="18"/>
<text text-anchor="middle" x="162" y="-14.3" font-family="Times New Roman,serif" font-size="14.00">投资</text>
</g>
<!-- 教育水平&#45;&gt;投资 -->
<g id="edge4" class="edge"><title>教育水平&#45;&gt;投资</title>
<path fill="none" stroke="black" d="M152.491,-143.906C152.121,-125.964 151.986,-96.9517 154,-72 154.684,-63.5216 155.9,-54.3409 157.18,-46.0402"/>
<polygon fill="black" stroke="black" points="160.643,-46.5492 158.801,-36.1158 153.735,-45.4208 160.643,-46.5492"/>
</g>
<!-- 工资 -->
<g id="node6" class="node"><title>工资</title>
<ellipse fill="none" stroke="black" cx="190" cy="-90" rx="27.0966" ry="18"/>
<text text-anchor="middle" x="190" y="-86.3" font-family="Times New Roman,serif" font-size="14.00">工资</text>
</g>
<!-- 教育水平&#45;&gt;工资 -->
<g id="edge5" class="edge"><title>教育水平&#45;&gt;工资</title>
<path fill="none" stroke="black" d="M161.957,-144.055C166.338,-135.767 171.702,-125.618 176.562,-116.424"/>
<polygon fill="black" stroke="black" points="179.802,-117.784 181.381,-107.307 173.613,-114.512 179.802,-117.784"/>
</g>
<!-- 工资&#45;&gt;投资 -->
<g id="edge6" class="edge"><title>工资&#45;&gt;投资</title>
<path fill="none" stroke="black" d="M183.364,-72.411C180.087,-64.2164 176.056,-54.1395 172.382,-44.9548"/>
<polygon fill="black" stroke="black" points="175.552,-43.4548 168.588,-35.4699 169.052,-46.0546 175.552,-43.4548"/>
</g>
</g>
</svg>
