<?xml version="1.0" encoding="UTF-8" standalone="no"?>
<!DOCTYPE svg PUBLIC "-//W3C//DTD SVG 1.1//EN"
 "http://www.w3.org/Graphics/SVG/1.1/DTD/svg11.dtd">
<!-- Generated by graphviz version 2.38.0 (20140413.2041)
 -->
<!-- Title: %3 Pages: 1 -->
<svg width="296pt" height="188pt"
 viewBox="0.00 0.00 296.20 188.00" xmlns="http://www.w3.org/2000/svg" xmlns:xlink="http://www.w3.org/1999/xlink">
<g id="graph0" class="graph" transform="scale(1 1) rotate(0) translate(4 184)">
<title>%3</title>
<polygon fill="white" stroke="none" points="-4,4 -4,-184 292.196,-184 292.196,4 -4,4"/>
<!-- Z -->
<g id="node1" class="node"><title>Z</title>
<ellipse fill="none" stroke="black" cx="27" cy="-162" rx="27" ry="18"/>
<text text-anchor="middle" x="27" y="-158.3" font-family="Times New Roman,serif" font-size="14.00">Z</text>
</g>
<!-- X -->
<g id="node2" class="node"><title>X</title>
<ellipse fill="none" stroke="black" cx="27" cy="-90" rx="27" ry="18"/>
<text text-anchor="middle" x="27" y="-86.3" font-family="Times New Roman,serif" font-size="14.00">X</text>
</g>
<!-- Z&#45;&gt;X -->
<g id="edge1" class="edge"><title>Z&#45;&gt;X</title>
<path fill="none" stroke="black" d="M27,-143.697C27,-135.983 27,-126.712 27,-118.112"/>
<polygon fill="black" stroke="black" points="30.5001,-118.104 27,-108.104 23.5001,-118.104 30.5001,-118.104"/>
</g>
<!-- U -->
<g id="node3" class="node"><title>U</title>
<ellipse fill="none" stroke="black" cx="99" cy="-162" rx="27" ry="18"/>
<text text-anchor="middle" x="99" y="-158.3" font-family="Times New Roman,serif" font-size="14.00">U</text>
</g>
<!-- U&#45;&gt;X -->
<g id="edge2" class="edge"><title>U&#45;&gt;X</title>
<path fill="none" stroke="black" d="M84.4297,-146.834C74.2501,-136.938 60.4761,-123.546 48.9694,-112.359"/>
<polygon fill="black" stroke="black" points="51.4055,-109.846 41.7957,-105.385 46.5259,-114.865 51.4055,-109.846"/>
</g>
<!-- Y -->
<g id="node4" class="node"><title>Y</title>
<ellipse fill="none" stroke="black" cx="99" cy="-90" rx="27" ry="18"/>
<text text-anchor="middle" x="99" y="-86.3" font-family="Times New Roman,serif" font-size="14.00">Y</text>
</g>
<!-- U&#45;&gt;Y -->
<g id="edge3" class="edge"><title>U&#45;&gt;Y</title>
<path fill="none" stroke="black" d="M99,-143.697C99,-135.983 99,-126.712 99,-118.112"/>
<polygon fill="black" stroke="black" points="102.5,-118.104 99,-108.104 95.5001,-118.104 102.5,-118.104"/>
</g>
<!-- A -->
<g id="node5" class="node"><title>A</title>
<ellipse fill="none" stroke="black" cx="138" cy="-18" rx="27" ry="18"/>
<text text-anchor="middle" x="138" y="-14.3" font-family="Times New Roman,serif" font-size="14.00">A</text>
</g>
<!-- U&#45;&gt;A -->
<g id="edge5" class="edge"><title>U&#45;&gt;A</title>
<path fill="none" stroke="black" d="M112.587,-146.017C120.733,-136.028 130.38,-122.171 135,-108 141.5,-88.0656 141.955,-64.2741 140.945,-46.3069"/>
<polygon fill="black" stroke="black" points="144.427,-45.9291 140.193,-36.2172 137.446,-46.4499 144.427,-45.9291"/>
</g>
<!-- Y&#45;&gt;A -->
<g id="edge4" class="edge"><title>Y&#45;&gt;A</title>
<path fill="none" stroke="black" d="M108.045,-72.7646C112.82,-64.1948 118.782,-53.494 124.127,-43.9004"/>
<polygon fill="black" stroke="black" points="127.194,-45.5865 129.004,-35.1473 121.079,-42.1795 127.194,-45.5865"/>
</g>
<!-- 药物 -->
<g id="node6" class="node"><title>药物</title>
<ellipse fill="none" stroke="black" cx="217" cy="-90" rx="27.0966" ry="18"/>
<text text-anchor="middle" x="217" y="-86.3" font-family="Times New Roman,serif" font-size="14.00">药物</text>
</g>
<!-- 存活 -->
<g id="node7" class="node"><title>存活</title>
<ellipse fill="none" stroke="black" cx="233" cy="-18" rx="27.0966" ry="18"/>
<text text-anchor="middle" x="233" y="-14.3" font-family="Times New Roman,serif" font-size="14.00">存活</text>
</g>
<!-- 药物&#45;&gt;存活 -->
<g id="edge6" class="edge"><title>药物&#45;&gt;存活</title>
<path fill="none" stroke="black" d="M220.873,-72.055C222.655,-64.2609 224.812,-54.8219 226.811,-46.0789"/>
<polygon fill="black" stroke="black" points="230.235,-46.8038 229.051,-36.2753 223.411,-45.244 230.235,-46.8038"/>
</g>
<!-- 严重程度 -->
<g id="node8" class="node"><title>严重程度</title>
<ellipse fill="none" stroke="black" cx="244" cy="-162" rx="44.393" ry="18"/>
<text text-anchor="middle" x="244" y="-158.3" font-family="Times New Roman,serif" font-size="14.00">严重程度</text>
</g>
<!-- 严重程度&#45;&gt;药物 -->
<g id="edge8" class="edge"><title>严重程度&#45;&gt;药物</title>
<path fill="none" stroke="black" d="M237.464,-144.055C234.38,-136.059 230.628,-126.331 227.183,-117.4"/>
<polygon fill="black" stroke="black" points="230.34,-115.859 223.476,-107.789 223.809,-118.379 230.34,-115.859"/>
</g>
<!-- 严重程度&#45;&gt;存活 -->
<g id="edge7" class="edge"><title>严重程度&#45;&gt;存活</title>
<path fill="none" stroke="black" d="M248.575,-143.825C252.711,-125.816 257.515,-96.7505 253,-72 251.326,-62.8208 248.145,-53.1658 244.805,-44.6485"/>
<polygon fill="black" stroke="black" points="247.973,-43.1502 240.892,-35.2692 241.513,-45.8458 247.973,-43.1502"/>
</g>
</g>
</svg>
