<?xml version="1.0" encoding="UTF-8" standalone="no"?>
<!DOCTYPE svg PUBLIC "-//W3C//DTD SVG 1.1//EN"
 "http://www.w3.org/Graphics/SVG/1.1/DTD/svg11.dtd">
<!-- Generated by graphviz version 2.38.0 (20140413.2041)
 -->
<!-- Title: %3 Pages: 1 -->
<svg width="90pt" height="260pt"
 viewBox="0.00 0.00 90.00 260.00" xmlns="http://www.w3.org/2000/svg" xmlns:xlink="http://www.w3.org/1999/xlink">
<g id="graph0" class="graph" transform="scale(1 1) rotate(0) translate(4 256)">
<title>%3</title>
<polygon fill="white" stroke="none" points="-4,4 -4,-256 86,-256 86,4 -4,4"/>
<!-- T -->
<g id="node1" class="node"><title>T</title>
<ellipse fill="none" stroke="black" cx="27" cy="-234" rx="27" ry="18"/>
<text text-anchor="middle" x="27" y="-230.3" font-family="Times New Roman,serif" font-size="14.00">T</text>
</g>
<!-- X -->
<g id="node2" class="node"><title>X</title>
<ellipse fill="none" stroke="black" cx="27" cy="-90" rx="27" ry="18"/>
<text text-anchor="middle" x="27" y="-86.3" font-family="Times New Roman,serif" font-size="14.00">X</text>
</g>
<!-- T&#45;&gt;X -->
<g id="edge1" class="edge"><title>T&#45;&gt;X</title>
<path fill="none" stroke="black" d="M23.7517,-215.888C21.9542,-205.542 19.9053,-192.063 19,-180 17.8026,-164.045 17.8026,-159.955 19,-144 19.6366,-135.518 20.8384,-126.336 22.1208,-118.036"/>
<polygon fill="black" stroke="black" points="25.5836,-118.547 23.7517,-108.112 18.6763,-117.412 25.5836,-118.547"/>
</g>
<!-- Y -->
<g id="node3" class="node"><title>Y</title>
<ellipse fill="none" stroke="black" cx="55" cy="-162" rx="27" ry="18"/>
<text text-anchor="middle" x="55" y="-158.3" font-family="Times New Roman,serif" font-size="14.00">Y</text>
</g>
<!-- T&#45;&gt;Y -->
<g id="edge2" class="edge"><title>T&#45;&gt;Y</title>
<path fill="none" stroke="black" d="M33.6356,-216.411C36.9134,-208.216 40.9442,-198.14 44.6181,-188.955"/>
<polygon fill="black" stroke="black" points="47.9477,-190.055 48.412,-179.47 41.4484,-187.455 47.9477,-190.055"/>
</g>
<!-- S -->
<g id="node4" class="node"><title>S</title>
<ellipse fill="none" stroke="red" cx="27" cy="-18" rx="27" ry="18"/>
<text text-anchor="middle" x="27" y="-14.3" font-family="Times New Roman,serif" font-size="14.00">S</text>
</g>
<!-- X&#45;&gt;S -->
<g id="edge4" class="edge"><title>X&#45;&gt;S</title>
<path fill="none" stroke="black" d="M27,-71.6966C27,-63.9827 27,-54.7125 27,-46.1124"/>
<polygon fill="black" stroke="black" points="30.5001,-46.1043 27,-36.1043 23.5001,-46.1044 30.5001,-46.1043"/>
</g>
<!-- Y&#45;&gt;X -->
<g id="edge3" class="edge"><title>Y&#45;&gt;X</title>
<path fill="none" stroke="black" d="M48.3644,-144.411C45.0866,-136.216 41.0558,-126.14 37.3819,-116.955"/>
<polygon fill="black" stroke="black" points="40.5516,-115.455 33.588,-107.47 34.0523,-118.055 40.5516,-115.455"/>
</g>
</g>
</svg>
