<?xml version="1.0" encoding="UTF-8" standalone="no"?>
<!DOCTYPE svg PUBLIC "-//W3C//DTD SVG 1.1//EN"
 "http://www.w3.org/Graphics/SVG/1.1/DTD/svg11.dtd">
<!-- Generated by graphviz version 2.38.0 (20140413.2041)
 -->
<!-- Title: %3 Pages: 1 -->
<svg width="278pt" height="116pt"
 viewBox="0.00 0.00 278.30 116.00" xmlns="http://www.w3.org/2000/svg" xmlns:xlink="http://www.w3.org/1999/xlink">
<g id="graph0" class="graph" transform="scale(1 1) rotate(0) translate(4 112)">
<title>%3</title>
<polygon fill="white" stroke="none" points="-4,4 -4,-112 274.298,-112 274.298,4 -4,4"/>
<!-- W -->
<g id="node1" class="node"><title>W</title>
<ellipse fill="none" stroke="black" cx="27" cy="-90" rx="27" ry="18"/>
<text text-anchor="middle" x="27" y="-86.3" font-family="Times New Roman,serif" font-size="14.00">W</text>
</g>
<!-- Y -->
<g id="node2" class="node"><title>Y</title>
<ellipse fill="none" stroke="black" cx="63" cy="-18" rx="27" ry="18"/>
<text text-anchor="middle" x="63" y="-14.3" font-family="Times New Roman,serif" font-size="14.00">Y</text>
</g>
<!-- W&#45;&gt;Y -->
<g id="edge1" class="edge"><title>W&#45;&gt;Y</title>
<path fill="none" stroke="black" d="M35.3496,-72.7646C39.7115,-64.2831 45.1469,-53.7144 50.0413,-44.1974"/>
<polygon fill="black" stroke="black" points="53.2346,-45.6409 54.6957,-35.1473 47.0096,-42.4395 53.2346,-45.6409"/>
</g>
<!-- T -->
<g id="node3" class="node"><title>T</title>
<ellipse fill="none" stroke="black" cx="99" cy="-90" rx="27" ry="18"/>
<text text-anchor="middle" x="99" y="-86.3" font-family="Times New Roman,serif" font-size="14.00">T</text>
</g>
<!-- T&#45;&gt;Y -->
<g id="edge2" class="edge"><title>T&#45;&gt;Y</title>
<path fill="none" stroke="black" d="M90.6504,-72.7646C86.2885,-64.2831 80.8531,-53.7144 75.9587,-44.1974"/>
<polygon fill="black" stroke="black" points="78.9904,-42.4395 71.3043,-35.1473 72.7654,-45.6409 78.9904,-42.4395"/>
</g>
<!-- IQ -->
<g id="node4" class="node"><title>IQ</title>
<ellipse fill="none" stroke="black" cx="171" cy="-90" rx="27" ry="18"/>
<text text-anchor="middle" x="171" y="-86.3" font-family="Times New Roman,serif" font-size="14.00">IQ</text>
</g>
<!-- 工资 -->
<g id="node5" class="node"><title>工资</title>
<ellipse fill="none" stroke="black" cx="207" cy="-18" rx="27.0966" ry="18"/>
<text text-anchor="middle" x="207" y="-14.3" font-family="Times New Roman,serif" font-size="14.00">工资</text>
</g>
<!-- IQ&#45;&gt;工资 -->
<g id="edge3" class="edge"><title>IQ&#45;&gt;工资</title>
<path fill="none" stroke="red" d="M179.35,-72.7646C183.712,-64.2831 189.147,-53.7144 194.041,-44.1974"/>
<polygon fill="red" stroke="red" points="197.235,-45.6409 198.696,-35.1473 191.01,-42.4395 197.235,-45.6409"/>
</g>
<!-- 教育 -->
<g id="node6" class="node"><title>教育</title>
<ellipse fill="none" stroke="black" cx="243" cy="-90" rx="27.0966" ry="18"/>
<text text-anchor="middle" x="243" y="-86.3" font-family="Times New Roman,serif" font-size="14.00">教育</text>
</g>
<!-- 教育&#45;&gt;工资 -->
<g id="edge4" class="edge"><title>教育&#45;&gt;工资</title>
<path fill="none" stroke="red" d="M234.65,-72.7646C230.288,-64.2831 224.853,-53.7144 219.959,-44.1974"/>
<polygon fill="red" stroke="red" points="222.99,-42.4395 215.304,-35.1473 216.765,-45.6409 222.99,-42.4395"/>
</g>
</g>
</svg>
