<?xml version="1.0" encoding="UTF-8" standalone="no"?>
<!DOCTYPE svg PUBLIC "-//W3C//DTD SVG 1.1//EN"
 "http://www.w3.org/Graphics/SVG/1.1/DTD/svg11.dtd">
<!-- Generated by graphviz version 2.38.0 (20140413.2041)
 -->
<!-- Title: %3 Pages: 1 -->
<svg width="306pt" height="116pt"
 viewBox="0.00 0.00 306.49 116.00" xmlns="http://www.w3.org/2000/svg" xmlns:xlink="http://www.w3.org/1999/xlink">
<g id="graph0" class="graph" transform="scale(1 1) rotate(0) translate(4 112)">
<title>%3</title>
<polygon fill="white" stroke="none" points="-4,4 -4,-112 302.495,-112 302.495,4 -4,4"/>
<!-- W=w -->
<g id="node1" class="node"><title>W=w</title>
<ellipse fill="none" stroke="black" cx="31.1972" cy="-90" rx="31.3957" ry="18"/>
<text text-anchor="middle" x="31.1972" y="-86.3" font-family="Times New Roman,serif" font-size="14.00">W=w</text>
</g>
<!-- T -->
<g id="node2" class="node"><title>T</title>
<ellipse fill="none" stroke="black" cx="107.197" cy="-90" rx="27" ry="18"/>
<text text-anchor="middle" x="107.197" y="-86.3" font-family="Times New Roman,serif" font-size="14.00">T</text>
</g>
<!-- Y -->
<g id="node3" class="node"><title>Y</title>
<ellipse fill="none" stroke="black" cx="107.197" cy="-18" rx="27" ry="18"/>
<text text-anchor="middle" x="107.197" y="-14.3" font-family="Times New Roman,serif" font-size="14.00">Y</text>
</g>
<!-- T&#45;&gt;Y -->
<g id="edge1" class="edge"><title>T&#45;&gt;Y</title>
<path fill="none" stroke="black" d="M107.197,-71.6966C107.197,-63.9827 107.197,-54.7125 107.197,-46.1124"/>
<polygon fill="black" stroke="black" points="110.697,-46.1043 107.197,-36.1043 103.697,-46.1044 110.697,-46.1043"/>
</g>
<!-- 智力=x -->
<g id="node4" class="node"><title>智力=x</title>
<ellipse fill="none" stroke="black" cx="189.197" cy="-90" rx="37.0935" ry="18"/>
<text text-anchor="middle" x="189.197" y="-86.3" font-family="Times New Roman,serif" font-size="14.00">智力=x</text>
</g>
<!-- 教育 -->
<g id="node5" class="node"><title>教育</title>
<ellipse fill="none" stroke="black" cx="271.197" cy="-90" rx="27.0966" ry="18"/>
<text text-anchor="middle" x="271.197" y="-86.3" font-family="Times New Roman,serif" font-size="14.00">教育</text>
</g>
<!-- 工资 -->
<g id="node6" class="node"><title>工资</title>
<ellipse fill="none" stroke="black" cx="271.197" cy="-18" rx="27.0966" ry="18"/>
<text text-anchor="middle" x="271.197" y="-14.3" font-family="Times New Roman,serif" font-size="14.00">工资</text>
</g>
<!-- 教育&#45;&gt;工资 -->
<g id="edge2" class="edge"><title>教育&#45;&gt;工资</title>
<path fill="none" stroke="red" d="M271.197,-71.6966C271.197,-63.9827 271.197,-54.7125 271.197,-46.1124"/>
<polygon fill="red" stroke="red" points="274.697,-46.1043 271.197,-36.1043 267.697,-46.1044 274.697,-46.1043"/>
</g>
</g>
</svg>
